<svg xmlns="http://www.w3.org/2000/svg" xmlns:xlink="http://www.w3.org/1999/xlink" width="128" height="128" viewBox="0 0 128 128"><defs><path id="prefix__a" d="M89 0l19 30-12.09 15H53a2.001 2.001 0 00-1.995 1.85L51 47v30a2 2 0 002 2h15.507L54 97 0 30 19 0h70z"/></defs><g fill="none" fill-rule="evenodd"><path fill="#D3F6FB" d="M126.157 35.545l-10.961 77.997-77.567 13.677L.652 57.675 55.365 1.018z" opacity=".75"/><path fill="#E61A1A" d="M60 118L4 46l14-23h76l15 23-11 15H63l-1 34h15z"/><g transform="translate(10 16)"><mask id="prefix__b" fill="#fff"><use xlink:href="#prefix__a"/></mask><path fill-rule="nonzero" stroke="#000" stroke-width="3" d="M104.87 31.141H3.13L54 94.433l50.87-63.292zM88.55 1.5h-69.1L2.714 28.141h102.572L88.55 1.5z" mask="url(#prefix__b)"/><path fill-rule="nonzero" stroke="#000" stroke-width="3" d="M87.03 1.5H20.97l9.727 26.641h46.606L87.03 1.5z" mask="url(#prefix__b)"/><path fill-rule="nonzero" stroke="#000" stroke-width="3" d="M54 2.367L32.892 28.141h42.216L54 2.367zm22.138 28.774H31.862L54 92.413l22.138-61.272z" mask="url(#prefix__b)"/></g><path fill="#000" d="M113 64c2.21 0 4 1.79 4 4v20c0 2.21-1.79 4-4 4H68c-2.21 0-4-1.79-4-4V68c0-2.21 1.79-4 4-4h45zm-1 3H69a2 2 0 00-2 2v18a2 2 0 002 2h43a2 2 0 002-2V69a2 2 0 00-2-2z"/><path fill="#000" d="M77.475 85c1.422 0 2.531-.354 3.329-1.062.797-.708 1.196-1.677 1.196-2.906 0-.888-.213-1.638-.638-2.25-.425-.611-1.212-1.221-2.359-1.83-.867-.46-1.417-.778-1.65-.955a1.86 1.86 0 01-.507-.55 1.325 1.325 0 01-.16-.665c0-.41.132-.742.395-.997s.64-.382 1.133-.382c.414 0 .835.06 1.263.177.429.118.97.326 1.625.624l.84-2.245a11.846 11.846 0 00-1.818-.708A6.564 6.564 0 0078.298 71c-1.298 0-2.315.345-3.051 1.034-.736.69-1.104 1.636-1.104 2.84 0 .64.112 1.2.335 1.678.224.478.524.897.899 1.257.375.36.937.736 1.687 1.127.8.422 1.33.73 1.59.922.261.193.458.393.593.601.134.208.201.446.201.713 0 .478-.152.838-.457 1.08-.305.242-.743.363-1.314.363-.476 0-1-.083-1.574-.251-.574-.168-1.275-.456-2.103-.866v2.682c1.007.547 2.166.82 3.475.82zm14.57 0V73.47H96V71H85v2.47h3.956V85h3.088zM107 85v-2.451h-5.254V71H99v14h8z"/></g></svg>