<svg xmlns="http://www.w3.org/2000/svg" xmlns:xlink="http://www.w3.org/1999/xlink" width="128" height="128" viewBox="0 0 128 128"><defs><path id="prefix__a" d="M0 0h42v128H0z"/><path id="prefix__c" d="M0 0h42v128H0z"/></defs><g fill="none" fill-rule="evenodd"><path fill="#D3F6FB" d="M126.157 35.545l-10.961 77.997-77.567 13.677L.652 57.675 55.365 1.018z" opacity=".75"/><path fill="#E61A1A" d="M55 98h32v5H55zm22-56h4v51h-4z"/><path fill="#000" d="M105 34c2.21 0 4 1.79 4 4v67c0 2.21-1.79 4-4 4h-3c0-2.21-1.79-4-4-4H64c-2.21 0-4 1.79-4 4h-3c-2.21 0-4-1.79-4-4V38c0-2.21 1.79-4 4-4h48zm-1 4H58a2 2 0 00-2 2v60a2 2 0 002 2h46a2 2 0 002-2V40a2 2 0 00-2-2zm2 54v2H56v-2h50zM79 49v31h-2V49h2zm6 0v31h-2V49h2zm-17-7a1 1 0 011 1v2h37v2H69v3a1 1 0 01-1 1h-6a1 1 0 01-1-1v-3h-5v-2h5v-2a1 1 0 011-1h6zm17-3v4h-2v-2h-4v2h-2v-4h8zM64 51h2v2h-2v-2zm-4 33h2v2h-2v-2zm4 12a2 2 0 11.001 3.999A2 2 0 0164 96zm41-14v2h-2v2h-2v-2h-9v2H70v-2H58v-2h47zm-28 6h8v4h-8v-4zm9 8v4H76v-4h10zm-3-8v4h-4v-4h4z"/><mask id="prefix__b" fill="#fff"><use xlink:href="#prefix__a"/></mask><rect width="34" height="14" x="12" y="94" fill="#E61A1A" mask="url(#prefix__b)" rx="2"/><path fill="#000" d="M11 45h36c2.21 0 4 1.79 4 4v34c0 2.21-1.79 4-4 4H11c-2.21 0-4-1.79-4-4V49c0-2.21 1.79-4 4-4zM9 89h40a2 2 0 012 2v16a2 2 0 01-2 2H9a2 2 0 01-2-2V91a2 2 0 012-2zm2 3h36a1 1 0 011 1v12a1 1 0 01-1 1H11a1 1 0 01-1-1V93a1 1 0 011-1zm19 3h10a1 1 0 011 1v1a1 1 0 01-1 1H30a1 1 0 01-1-1v-1a1 1 0 011-1zm14.5 0a1.5 1.5 0 11-.001 3.001A1.5 1.5 0 0144.5 95zM10 49h38v34H10V49z" mask="url(#prefix__b)"/><path fill="#000" d="M31 55a2 2 0 012 2v4h3a1 1 0 011 1v1a1 1 0 01-1 1h-3v13h8l-2 4H19l-2-4h8V64h-3a1 1 0 01-1-1v-1a1 1 0 011-1h3v-4a2 2 0 012-2h4zm0 9h-4v13h4V64zm-1-7h-2a1 1 0 00-.993.883L27 58v3h4v-3a1 1 0 00-.883-.993L30 57z" mask="url(#prefix__b)"/><g transform="translate(86)"><mask id="prefix__d" fill="#fff"><use xlink:href="#prefix__c"/></mask><path fill="#E61A1A" d="M9 78h13v20H9z" mask="url(#prefix__d)"/><path fill="#000" d="M43 66a8 8 0 018 8v27a8 8 0 01-8 8H15a8 8 0 01-8-8V74a8 8 0 018-8h28zm-1 3H16a6 6 0 00-6 6v25a6 6 0 006 6h26a6 6 0 006-6V75a6 6 0 00-6-6zM14.5 81a1.5 1.5 0 011.5 1.5v11a1.5 1.5 0 01-3 0v-11a1.5 1.5 0 011.5-1.5zm9-10h11a1.5 1.5 0 010 3h-11a1.5 1.5 0 010-3zM13 42h32a6 6 0 016 6v10a6 6 0 01-6 6H13a6 6 0 01-6-6V48a6 6 0 016-6zm0 3h32a3 3 0 013 3v10a3 3 0 01-3 3H13a3 3 0 01-3-3V48a3 3 0 013-3zm8 3h16v10H21V48z" mask="url(#prefix__d)"/></g><path stroke="#FFF" stroke-width="2" d="M43 7v117M86 7v117"/></g></svg>