<svg xmlns="http://www.w3.org/2000/svg" width="128" height="128" viewBox="0 0 128 128"><g fill="none" fill-rule="evenodd"><path fill="#D3F6FB" d="M126.157 35.545l-10.961 77.997-77.567 13.677L.652 57.675 55.365 1.018z" opacity=".75"/><g fill="#000" fill-rule="nonzero"><path d="M87 10c5.523 0 10 4.477 10 10v36.213A128.752 128.752 0 0193.001 54H93V20a6 6 0 00-6-6H20a6 6 0 00-6 6v67a6 6 0 006 6l46.299.001a42.792 42.792 0 001.318 4L20 97c-5.523 0-10-4.477-10-10V20c0-5.523 4.477-10 10-10h67z"/><path d="M54 79c-1.104 0-2-1.224-2-2.732V30.732c0-1.508.896-2.732 2-2.732s2 1.224 2 2.732v45.536C56 77.776 55.104 79 54 79z"/><path d="M53.997 79a2.304 2.304 0 01-1.674-.72l-12.63-13.089a2.52 2.52 0 010-3.472 2.311 2.311 0 013.351 0L54 73.074 64.956 61.72a2.31 2.31 0 013.35 0 2.519 2.519 0 010 3.472l-12.63 13.09a2.334 2.334 0 01-1.68.719z"/></g><path fill="#E61A1A" d="M111 85.58c0 11.369-4.958 18.91-9.118 23.234-4.934 5.13-9.996 7.125-10.882 7.186-.886-.06-5.948-2.056-10.882-7.186C75.958 104.49 71 96.95 71 85.58V74.953c7.02-2.148 13.587-5.089 20-8.953 6.27 3.766 13.132 6.837 20 8.952v10.627z"/><path fill="#000" d="M93 58c7.837 4.52 16.415 8.205 25 10.742v12.753c0 13.643-6.198 22.693-11.397 27.882-6.168 6.156-12.495 8.55-13.603 8.623-1.108-.073-7.435-2.467-13.603-8.623C74.197 104.187 68 95.138 68 81.495V68.744C76.774 66.166 84.984 62.637 93 58zm0 4c-6.733 4.019-13.63 7.077-21 9.311v11.052c0 11.823 5.206 19.666 9.574 24.164 5.18 5.335 10.495 7.41 11.426 7.473.93-.063 6.245-2.138 11.426-7.473 4.368-4.498 9.574-12.34 9.574-24.164V71.31c-7.211-2.2-14.417-5.393-21-9.31z"/><path stroke="#000" stroke-linecap="round" stroke-linejoin="round" stroke-width="4" d="M84 88l7 7 13-13"/></g></svg>