<svg xmlns="http://www.w3.org/2000/svg" width="128" height="128" viewBox="0 0 128 128"><g fill="none" fill-rule="evenodd"><path fill="#D3F6FB" d="M126.157 35.545l-10.961 77.997-77.567 13.677L.652 57.675 55.365 1.018z" opacity=".75"/><path fill="#000" fill-rule="nonzero" d="M13 45v35c0 2.21 1.79 4 4 4h52.86c.09 1.027.214 2.027.365 3.001L16 87a6 6 0 01-6-6V21a6 6 0 016-6h96a6 6 0 016 6v41.394c-1.003-.373-2.003-.76-3-1.158V45H13zm0-15h102v-8c0-2.21-1.79-4-4-4H17c-2.21 0-4 1.79-4 4v8zm6.5 20h12a1.5 1.5 0 010 3h-12a1.5 1.5 0 010-3zM36 59a9 9 0 11-4.5 16.796 9 9 0 11.001-15.591A8.942 8.942 0 0136 59zm-9 3a6 6 0 100 12 6 6 0 000-12zm10.5-12a1.5 1.5 0 11-.001 3.001A1.5 1.5 0 0137.5 50z"/><path fill="#E61A1A" d="M116 83.58c0 11.369-4.958 18.91-9.118 23.234-4.934 5.13-9.996 7.126-10.882 7.186-.886-.06-5.948-2.056-10.882-7.186C80.958 102.49 76 94.95 76 83.58V72.953c7.02-2.148 13.587-5.089 20-8.953 6.27 3.766 13.132 6.837 20 8.952v10.627z"/><path fill="#000" d="M98 57c7.837 4.52 16.415 8.205 25 10.742v12.753c0 13.643-6.198 22.693-11.397 27.882-6.168 6.156-12.495 8.55-13.603 8.623-1.108-.073-7.435-2.467-13.603-8.623C79.197 103.187 73 94.138 73 80.495V67.744C81.774 65.166 89.984 61.637 98 57zm0 4c-6.733 4.019-13.63 7.077-21 9.311v11.052c0 11.823 5.206 19.666 9.574 24.164 5.18 5.335 10.495 7.41 11.426 7.473.93-.063 6.245-2.138 11.426-7.473 4.368-4.498 9.574-12.34 9.574-24.164V70.31c-7.211-2.2-14.417-5.393-21-9.31z"/><path stroke="#000" stroke-linecap="round" stroke-linejoin="round" stroke-width="4" d="M89 87l7 7 13-13"/></g></svg>