<svg xmlns="http://www.w3.org/2000/svg" xmlns:xlink="http://www.w3.org/1999/xlink" width="128" height="128" viewBox="0 0 128 128"><defs><path id="prefix__a" d="M.5 0h41v128H.5z"/><path id="prefix__c" d="M0 0h40v128H0z"/></defs><g fill="none" fill-rule="evenodd"><path fill="#D3F6FB" d="M126.157 35.545l-10.961 77.997-77.567 13.677L.652 57.675 55.365 1.018z" opacity=".75"/><g transform="translate(-.5)"><mask id="prefix__b" fill="#fff"><use xlink:href="#prefix__a"/></mask><path fill="#000" d="M39.5 33l2 1v4l-2-1-4 2-4-1-12 6-9-2-1 3 11 3 7.89-2.959L30.5 57l5.607 1.529L42.5 60l8-3 4 20.923-.915.688L54.289 92H55.5l4 6v11l3 3h-42l3-3V98l4-6h1.559l4.312-30.876L28.5 60l-2-12-5 3-15-5 1-6 12 1 11-6 3 1 5-1 1-2zm17 66h-30v10h30V99zm-27.581-6H28.5l-2 4h30l-2-4h-.158l.158 3h-26l.419-3zM50.5 81l-16 13h17l-1-13zm-1-21l-8 3-6.075-1.402L31.5 93h1l19-16-2-17zm-3-20v2l-5 4-5-4v-2l5 4 5-4zm-4.997-24l3.422.557 2.575 5.35-2.93 9.56L41.5 33l-3.07-1.532-2.93-9.56 2.576-5.35L41.503 16zm-.003 5l-4 1.823 1.953 6.185L41.5 30l2.047-.992 1.953-6.185-4-1.823zm-23 9l6 6 2-8z" mask="url(#prefix__b)"/><path fill="#000" d="M18.385 26.528c-1.04 0-2.141 1.628-3.079 4.26-.618 1.733-1.105 3.845-1.42 6.212l-3.386-.138c.35-2.762.919-5.25 1.65-7.3C13.594 25.508 15.787 23 18.385 23c2.526 0 4.67 2.374 6.115 6.236-.945.336-2.28.802-3.207 1.092-.899-2.36-1.93-3.8-2.908-3.8zm2.789 28.979c.06-.166.12-.335.178-.507l3.148 1.15c-.062.181-.125.36-.19.537-1.435 3.9-3.615 6.313-6.196 6.313-2.581 0-4.76-2.413-6.196-6.313-.146-.397-.286-.81-.418-1.24.352.085.654.111.837.051.744-.244 1.765.064 2.08.064.083 0 .3-.092.575-.228l.063.173c.931 2.532 2.025 4.098 3.06 4.098 1.033 0 2.127-1.566 3.059-4.098z" mask="url(#prefix__b)"/><path fill="#000" d="M17.5 56.146L11.5 50l-2 8z" mask="url(#prefix__b)"/><g fill="#000" mask="url(#prefix__b)"><path d="M21.493 85.174c.166.06.335.12.507.178L20.85 88.5c-.181-.062-.36-.125-.537-.19-3.9-1.435-6.313-3.615-6.313-6.196 0-2.581 2.413-4.76 6.313-6.196.397-.146.81-.286 1.24-.418-.085.352-.111.654-.051.837.244.744-.064 1.765-.064 2.08 0 .083.092.3.228.575l-.173.063c-2.532.931-4.098 2.025-4.098 3.06 0 1.033 1.566 2.127 4.098 3.059z"/><path d="M20.854 81.5l6.146-6-8-2z"/></g></g><path fill="#FFF" d="M41 0h2v128h-2z"/><path fill="#E61A1A" d="M64 15h4l4 6-2 5-4 6 10 3 5 17-5 9 2 18 1 11 5 8v14H64z"/><g fill="#000"><path d="M73 57l4 20.923-.915.688L76.789 92H78l4 6v11l3 3H43l3-3V98l4-6h1.559l4.748-34L65 60l8-3zm6 42H49v10h30V99zm-27.581-6H51l-2 4h30l-2-4h-.158L77 96H51l.419-3zM73 81L57 94h17l-1-13zm-1-21l-8 3-6-2-4 32h1l19-16-2-17z"/><path d="M66 33l1 2 5 1 2-1 6 15-5 9-11 4-11-4-5-9 6-15 2 1 5-1 1-2 2 1 2-1zm-.375 3L64 36.8l-1.625-.8-.813 1.6-4.062.8-1.625-.8L51 49.6l4.063 7.2L64 60l8.938-3.2L77 49.6l-4.875-12-1.625.8-4.063-.8-.812-1.6zM70 44l2 5v7l-7-2v-2l5 1v-9zm-12 0v9l5-1v2l-7 2v-7l2-5zm1-2v-2l5 4 5-4v2l-5 4-5-4zm5.003-27l3.422.557L70 20.907l-2.93 9.56L64 32l-3.07-1.532-2.93-9.56 2.576-5.35L64.003 15zM68 22l-4 1-4-1 1.953 6.008L64 29l2.047-.992L68 22z"/></g><g transform="translate(88)"><mask id="prefix__d" fill="#fff"><use xlink:href="#prefix__c"/></mask><path fill="#000" d="M11 63.975l2 13.948-.915.688L12.79 92H14l4 6v11l3 3h-42l3-3V98l4-6h1.559l3.91-27.999h2.398L-10 93h1l19-16-1.733-12.999L11 64v-.025zM15 99h-30v10h30V99zm-27.581-6H-13l-2 4h30l-2-4h-.158L13 96h-26l.419-3zM9 81L-7 94h17L9 81zm-22-25l-2-12 4-13 3 1 5-1 1-2 2 1 2-1 1 2 5 1 3-1 4 13-2 12-13 3-13-3zm11-23l-5 2-2-1-3 10 1 9 11 3 11-3 1-9-3-10-2 1-5-2-2 1-2-1zm7 3v2l-5 4-5-4v-2l5 4 5-4zM.003 9l3.422.557L6 14.907l-2.93 9.56L0 26l-3.07-1.532-2.93-9.56 2.576-5.35L.003 9zM0 14l-4 1.823 1.953 6.185L0 23l2.047-.992L4 15.823 0 14zm16 16l11 6 12-1-2 7-13 4-4-3-4-13zm4 5l2 6 3 2 10-3 1-3-9 2-7-4zm-5-3l3 9-4-3z" mask="url(#prefix__d)"/><path fill="#000" d="M0 65l6-4v-1H-6v1z" mask="url(#prefix__d)" transform="matrix(1 0 0 -1 0 125)"/></g><path fill="#FFF" d="M86 0h2v128h-2z"/></g></svg>