<svg xmlns="http://www.w3.org/2000/svg" width="48" height="48" viewBox="0 0 48 48"><g fill="#B6D4D9" fill-rule="evenodd"><path d="M45.079 0H28.782a2.924 2.924 0 00-2.921 2.921 2.925 2.925 0 002.921 2.922h9.244l-15.42 15.42a2.9 2.9 0 00-.856 2.066 2.9 2.9 0 00.856 2.065c.551.552 1.285.856 2.065.856s1.514-.304 2.066-.856l15.42-15.42v9.244a2.925 2.925 0 002.922 2.921c1.61 0 2.921-1.31 2.921-2.921V2.921C48 1.311 46.69 0 45.079 0z"/><path d="M29.875 9l-5.625 5H7a2.001 2.001 0 00-1.995 1.85L5 16v25c0 1.054.816 1.918 1.85 1.995L7 43h25a2.001 2.001 0 001.995-1.85L34 41V24l5-5v25c0 2.21-1.79 4-4 4H4c-2.21 0-4-1.79-4-4V13c0-2.21 1.79-4 4-4h25.875z"/></g></svg>