<svg version="1.0" xmlns="http://www.w3.org/2000/svg" width="246.667" height="246.667" viewBox="0 0 185 185"><g fill="#d93636"><path d="M19 1.5C13.3 3.3 6.6 8.9 3.7 14.4l-2.2 4.1v147l2.2 4.1c2.4 4.4 7.4 9.3 12.6 12.1 3 1.7 8.3 1.8 76.2 1.8h73l5.4-3c3-1.7 6.7-4.8 8.3-6.9 5.9-8.2 5.9-7.6 5.6-84.2l-.3-69.9-3-5.4c-3-5.4-6.1-8.3-12.5-11.7C165.7.6 161.7.5 94.5.3 35.7.1 22.7.3 19 1.5zm74 45.9c3 .8 6.7 1.9 8.2 2.5l2.8 1-2.5 5.8c-1.4 3.1-2.7 5.9-2.9 6.1-.2.2-3.4-.6-7.1-1.7-17.4-5.4-33-.6-39.6 12.1-4.9 9.5-4.7 25.8.4 35.7 4.8 9.3 15.3 14 28.4 12.7 9.8-1 9.3-.4 9.3-12.2V99H72V86h32l-.2 22.2-.3 22.2-5 1.3c-16.2 4.2-35 3.7-45.2-1.3-7.1-3.4-14.4-11.6-17.4-19.6-2.1-5.6-2.4-7.9-2.4-20.3 0-16.9 1.7-22.3 9.7-31C49.1 53 54.4 49.6 62 47.6c7.1-1.9 24-2 31-.2zm55 21.4c6.6 3.5 8.7 11.8 5.1 19.8-3.7 8-13.4 12.7-29.5 14l-8.6.7v6.1c0 11.5 5.6 17.6 16.1 17.6 3.4 0 8-.8 10.9-1.9l5-1.9v3.2c0 3.8-1.5 4.7-10.4 6.6-12.8 2.6-22.7-1.9-27.1-12.5-2.5-5.9-2.3-18.9.5-27.6 3.8-11.6 12-21.3 20.6-24.4 5.6-2 13.3-1.8 17.4.3z"/><path d="M131.2 75.1c-6.2 3.1-12.1 11-14.7 19.8l-.7 2.4 7.3-.7c14.7-1.4 21.8-4.7 23.9-11.2 3.3-9.9-5.3-15.5-15.8-10.3z"/></g></svg>