<svg xmlns="http://www.w3.org/2000/svg" width="36" height="32" viewBox="0 0 36 32"><path d="M6.617 10.694c-.41.443-1.066.793-1.722.743-.082-.6.239-1.237.615-1.63.41-.457 1.128-.782 1.709-.807.068.625-.198 1.238-.602 1.694m.595.862c-.95-.05-1.764.494-2.215.494-.458 0-1.148-.469-1.9-.456-.978.012-1.887.519-2.386 1.325-1.025 1.612-.267 4 .725 5.312.485.65 1.066 1.363 1.832 1.338.724-.025 1.011-.431 1.886-.431.882 0 1.135.43 1.9.418.794-.012 1.293-.65 1.778-1.3.554-.737.78-1.456.793-1.493-.014-.013-1.531-.544-1.545-2.144-.014-1.338 1.196-1.975 1.251-2.013-.684-.925-1.75-1.025-2.12-1.05m5.49-1.812v9.744h1.654v-3.332h2.29c2.092 0 3.562-1.312 3.562-3.212 0-1.9-1.442-3.2-3.507-3.2h-3.999zm1.654 1.275h1.908c1.435 0 2.256.7 2.256 1.931s-.82 1.938-2.263 1.938h-1.9v-3.87zm8.874 8.544c1.039 0 2.002-.482 2.44-1.244h.034v1.169h1.531v-4.85c0-1.407-1.23-2.313-3.124-2.313-1.756 0-3.055.919-3.103 2.181h1.49c.123-.6.732-.993 1.566-.993 1.011 0 1.579.43 1.579 1.225v.537l-2.065.113c-1.92.106-2.96.825-2.96 2.075 0 1.262 1.073 2.1 2.612 2.1zm.444-1.157c-.882 0-1.443-.387-1.443-.981 0-.612.54-.969 1.573-1.025l1.839-.106v.55c0 .912-.848 1.562-1.97 1.562zm5.605 3.732c1.614 0 2.372-.563 3.035-2.27l2.906-7.45h-1.682l-1.948 5.757h-.034l-1.949-5.756h-1.729l2.803 7.094-.15.43c-.254.732-.664 1.013-1.395 1.013-.13 0-.383-.012-.486-.025V22.1c.096.025.506.038.63.038z"/></svg>