<svg xmlns="http://www.w3.org/2000/svg" width="33" height="32" viewBox="0 0 33 32"><g fill="none" fill-rule="evenodd" opacity=".5"><path d="M.571 0h32v32h-32z"/><path fill="#FFF" d="M13.267 20.131l-.001-8.948 8.646 4.49-8.645 4.458zM29.779 8.059c-1.116-1.057-2.366-1.062-2.94-1.124-4.104-.268-10.262-.268-10.262-.268h-.012s-6.158 0-10.263.268c-.573.062-1.823.067-2.939 1.124-.88.806-1.165 2.635-1.165 2.635s-.294 2.147-.294 4.295v2.014c0 2.147.294 4.295.294 4.295s.286 1.829 1.165 2.634c1.116 1.057 2.582 1.024 3.235 1.135 2.346.203 9.973.266 9.973.266s6.164-.008 10.268-.277c.574-.061 1.824-.067 2.94-1.124.88-.805 1.166-2.634 1.166-2.634s.293-2.148.293-4.295v-2.014c0-2.148-.293-4.295-.293-4.295s-.287-1.83-1.166-2.635z"/></g></svg>