<svg xmlns="http://www.w3.org/2000/svg" width="33" height="32" viewBox="0 0 33 32"><g fill="none" fill-rule="evenodd" opacity=".5"><path d="M.571 0h32v32h-32z"/><path fill="#FFF" d="M28.631 11.358c.365 8.081-5.68 17.092-16.379 17.092-3.254 0-6.282-.95-8.833-2.582 3.058.359 6.11-.486 8.532-2.379a5.764 5.764 0 01-5.382-3.99c.904.171 1.792.12 2.601-.098-2.772-.555-4.683-3.044-4.622-5.706.776.43 1.666.69 2.609.72a5.746 5.746 0 01-1.784-7.672 16.377 16.377 0 0011.877 6.003c-.84-3.593 1.894-7.054 5.614-7.054 1.657 0 3.154.697 4.206 1.816a11.573 11.573 0 003.66-1.394 5.762 5.762 0 01-2.533 3.179 11.587 11.587 0 003.31-.905 11.784 11.784 0 01-2.876 2.97z"/></g></svg>