<svg xmlns="http://www.w3.org/2000/svg" width="36" height="32" viewBox="0 0 36 32"><g fill="none"><path fill="#00579F" d="M16.121 21.197h-2.832l1.771-10.015h2.833zm10.268-9.771a7.567 7.567 0 00-2.54-.426c-2.797 0-4.767 1.364-4.78 3.314-.022 1.438 1.411 2.237 2.483 2.717 1.096.49 1.469.81 1.469 1.247-.012.67-.886.98-1.701.98-1.131 0-1.737-.16-2.658-.533l-.373-.16-.396 2.249c.664.276 1.888.522 3.159.533 2.972 0 4.907-1.343 4.93-3.42.01-1.141-.746-2.015-2.378-2.729-.99-.458-1.597-.767-1.597-1.236.011-.426.513-.863 1.631-.863a5.202 5.202 0 012.11.384l.256.106.385-2.163zm3.765 6.224l1.131-2.803c-.012.021.233-.586.373-.96l.198.864s.536 2.397.652 2.898h-2.354zm3.497-6.469h-2.192c-.676 0-1.19.18-1.48.83l-4.208 9.185h2.972s.49-1.236.594-1.502h3.637c.081.351.338 1.502.338 1.502h2.623l-2.284-10.014zm-22.728.001l-2.774 6.83-.303-1.386c-.513-1.598-2.122-3.335-3.917-4.198l2.541 8.759h2.996l4.452-10.005h-2.995z"/><path fill="#FAA61A" d="M5.573 11.182H1.016l-.047.202c3.555.831 5.91 2.835 6.877 5.243l-.991-4.604c-.163-.64-.664-.82-1.282-.841z"/></g></svg>