<svg xmlns="http://www.w3.org/2000/svg" width="36" height="32" viewBox="0 0 36 32"><g fill="none" fill-rule="evenodd"><path fill="#F79F1A" d="M35.065 13.91c0 5.442-4.816 9.854-10.757 9.854-5.94 0-10.757-4.412-10.757-9.854 0-5.442 4.816-9.854 10.757-9.854s10.757 4.412 10.757 9.854z"/><path fill="#EA001B" d="M21.795 13.91c0 5.442-4.816 9.854-10.757 9.854S.279 19.352.279 13.91c.001-5.442 4.818-9.854 10.76-9.854 5.94 0 10.757 4.412 10.757 9.854z"/><path fill="#FF5F01" d="M17.673 6.153c-2.51 1.804-4.121 4.607-4.121 7.756s1.61 5.954 4.12 7.758c2.51-1.804 4.122-4.61 4.122-7.758 0-3.149-1.611-5.952-4.121-7.756z"/><path d="M35.312 19.822v-1h-.132l-.151.688-.151-.688h-.132v1h.093v-.754l.142.65h.096l.142-.652v.756h.093zm-.833 0v-.83h.168v-.167h-.429v.169h.169v.829h.092z" fill="#F79F1A" fill-rule="nonzero"/><path d="M2.674 28.639h-.61v-2.605h.598v.318s.526-.388.838-.383c.607.01.97.481.97.481s.293-.481.957-.481c.981 0 1.125.82 1.125.82v1.839h-.586v-1.621s.002-.492-.635-.492c-.658 0-.718.492-.718.492v1.62h-.61v-1.63s-.059-.515-.61-.515c-.717 0-.73.525-.73.525l.011 1.63zm18.564-2.671c-.313-.005-.838.383-.838.383v-.316h-.6v2.602h.611l-.011-1.63s.013-.524.73-.524c.133 0 .236.03.318.075v-.001l.2-.507a1.164 1.164 0 00-.41-.082zm8.598 0c-.312-.005-.837.383-.837.383v-.316h-.6v2.602h.611l-.011-1.63s.013-.524.73-.524c.133 0 .236.03.318.075v-.001l.199-.507a1.16 1.16 0 00-.41-.082zm-21.31-.011c-.914 0-1.397.751-1.4 1.378a1.424 1.424 0 001.425 1.385c.51 0 .93-.345.93-.345l-.001.266h.6v-2.607h-.602v.328s-.394-.404-.952-.404zm.117.531c.49 0 .889.39.889.871a.88.88 0 01-.89.869c-.49 0-.886-.389-.886-.869s.396-.87.887-.87zm17.405-.531c-.913 0-1.397.751-1.4 1.378a1.425 1.425 0 001.426 1.385c.51 0 .93-.345.93-.345l-.001.266h.6v-2.607H27v.328s-.393-.404-.952-.404zm.117.531c.491 0 .89.39.89.871a.88.88 0 01-.89.869c-.49 0-.887-.389-.887-.869s.397-.87.887-.87zm5.652-.531c-.913 0-1.397.751-1.399 1.378a1.424 1.424 0 001.425 1.385c.51 0 .93-.345.93-.345l-.001.266h.6v-3.637h-.602v1.358s-.394-.404-.953-.404zm.117.531c.491 0 .89.39.89.871a.88.88 0 01-.89.869c-.49 0-.887-.389-.887-.869s.397-.87.887-.87zm-20.02 2.239c-.622 0-1.197-.35-1.197-.35l.264-.373s.543.23.933.23c.253 0 .677-.075.682-.307.006-.244-.712-.317-.712-.317s-1.071-.013-1.071-.82c0-.508.535-.832 1.22-.832.397 0 1.138.317 1.138.317l-.3.427s-.571-.21-.873-.219c-.255-.008-.563.103-.563.306 0 .553 1.784-.043 1.784 1.073 0 .732-.727.864-1.305.864zm2.296-3.448v.758h-.531v.547h.531v1.31s-.047.886.995.886c.288 0 .851-.195.851-.195l-.24-.57s-.225.176-.478.17c-.481-.011-.468-.293-.468-.293v-1.308h.992v-.547h-.992v-.758h-.66zm3.616.711c-.98 0-1.47.737-1.465 1.378.004.658.445 1.399 1.523 1.399.461 0 1.11-.37 1.11-.37l-.28-.443s-.441.287-.83.287c-.778 0-.828-.696-.828-.696h2.082s.156-1.555-1.312-1.555zm-.09.511h.073c.733 0 .728.633.728.633h-1.481s-.035-.596.68-.633zm6.285 1.446l.279.51s-.443.264-.94.264c-1.028 0-1.599-.708-1.599-1.377 0-1.053.909-1.362 1.523-1.362.558 0 1.041.294 1.041.294l-.313.51s-.19-.27-.744-.27-.847.436-.847.85c0 .465.34.86.855.86.404 0 .745-.279.745-.279zm10.883.34a.578.578 0 00-.39.146.476.476 0 000 .706.575.575 0 00.39.148.57.57 0 00.387-.148.482.482 0 00.16-.352.486.486 0 00-.162-.354.559.559 0 00-.384-.146zm0 .89a.443.443 0 01-.296-.116.373.373 0 01-.001-.55.434.434 0 01.298-.113c.117.003.215.04.293.113a.378.378 0 010 .551.426.426 0 01-.294.114zm.033-.626h-.23v.465h.107v-.173h.048l.151.174h.128l-.164-.175a.212.212 0 00.117-.046.126.126 0 00.042-.095.128.128 0 00-.052-.108.237.237 0 00-.148-.04zm-.002.088a.13.13 0 01.067.016c.016.01.024.025.025.046 0 .02-.009.036-.025.047a.13.13 0 01-.068.015h-.121v-.124h.121z" fill="#000" fill-rule="nonzero"/></g></svg>