<svg xmlns="http://www.w3.org/2000/svg" width="36" height="32" viewBox="0 0 36 32"><g fill="none"><path fill="#FFF" d="M17.522 16.208v3.724h-1.293v-9.198h3.428a3.26 3.26 0 012.22.796c.6.495.939 1.202.927 1.942.017.743-.322 1.456-.927 1.952-.6.522-1.34.783-2.22.783h-2.135zm0-4.342v3.211h2.167c.48.013.945-.16 1.279-.475.332-.295.52-.7.52-1.124 0-.424-.188-.83-.52-1.124-.33-.323-.796-.5-1.279-.488h-2.167zm8.26 1.567c.955 0 1.71.234 2.262.7.553.467.83 1.107.829 1.92v3.88h-1.237v-.874h-.056c-.535.72-1.247 1.079-2.135 1.079-.758 0-1.393-.206-1.903-.617-.497-.382-.778-.948-.766-1.54 0-.652.269-1.17.807-1.555.539-.384 1.257-.577 2.157-.578.767 0 1.399.129 1.896.385v-.27a1.303 1.303 0 00-.534-1.046 1.936 1.936 0 00-1.248-.43c-.722 0-1.293.278-1.714.835l-1.138-.656c.626-.822 1.553-1.233 2.78-1.233zm-1.672 4.573a.918.918 0 00.429.77c.285.206.64.315 1.004.309a2.168 2.168 0 001.454-.552c.428-.369.642-.8.642-1.297-.403-.294-.965-.44-1.686-.44-.525 0-.963.115-1.313.347-.354.235-.53.52-.53.863zm11.859-4.367l-4.316 9.068h-1.334l1.602-3.173-2.838-5.895h1.405l2.051 4.521h.028l1.995-4.521z"/><path fill="#4285F4" d="M12.299 15.405c0-.36-.033-.72-.1-1.075h-5.45v2.036h3.122c-.13.656-.546 1.236-1.155 1.605v1.321h1.864c1.09-.92 1.72-2.28 1.72-3.887z"/><path fill="#34A853" d="M6.749 20.569c1.56 0 2.873-.468 3.83-1.276l-1.863-1.32c-.518.32-1.186.504-1.967.504-1.508 0-2.787-.93-3.245-2.181h-1.92v1.361c.982 1.785 2.98 2.912 5.165 2.912z"/><path fill="#FBBC04" d="M3.504 16.296a2.91 2.91 0 010-2.023v-1.361h-1.92a4.884 4.884 0 000 4.745l1.92-1.361z"/><path fill="#EA4335" d="M6.749 12.092a3.303 3.303 0 012.217.792l1.65-1.508C9.569 10.478 8.184 9.985 6.749 10c-2.185 0-4.183 1.127-5.164 2.912l1.92 1.361c.457-1.252 1.736-2.181 3.244-2.181z"/></g></svg>