<svg xmlns="http://www.w3.org/2000/svg" width="36" height="32" viewBox="0 0 36 32"><g fill="none"><path fill="#03A9F4" d="M27.026 6.112c-.77-.67-1.885-.887-2.886-.563a.744.744 0 00-.534.58l-.223 1.398c-.337 2.11-2.312 3.678-4.645 3.686h-3.177c-.365 0-.682.227-.77.55l-2.384 8.716c-.106.389.153.783.579.88a.883.883 0 00.192.022h3.971c.365 0 .683-.227.77-.55l1.439-5.26h3.098c2.378.007 4.452-1.475 5.02-3.586l.586-2.149c.413-1.321.017-2.743-1.036-3.724z"/><g fill="#283593"><path d="M1.263 30.095c-.439 0-.794-.325-.794-.726 0-.06.008-.118.024-.176l.794-2.89v-.03l.794-2.89c.089-.323.406-.55.77-.55h2.022c1.096 0 1.986.814 1.986 1.815 0 .149-.02.297-.06.44l-.198.727c-.22.809-1.015 1.376-1.927 1.376H2.679l-.644 2.354c-.088.324-.407.551-.772.55zm1.813-4.357h1.598c.182 0 .34-.114.384-.276l.199-.726c.054-.194-.073-.39-.285-.44a.415.415 0 00-.1-.012h-1.4l-.396 1.454zm6.682 4.357H8.627c-1.217 0-2.203-.9-2.203-2.012 0-.165.022-.33.066-.489l.105-.386c.235-.867 1.088-1.475 2.065-1.472h1.131c1.216.002 2.2.905 2.198 2.017 0 .164-.022.327-.066.486l-.105.386c-.235.865-1.086 1.472-2.06 1.47zm-1.726-2.148c-.081.3.12.605.448.68a.72.72 0 00.147.016h1.13c.246 0 .46-.152.519-.369l.104-.386c.082-.3-.118-.605-.447-.68a.72.72 0 00-.147-.016h-1.13c-.246 0-.46.151-.519.369l-.105.386z"/><path d="M10.795 30.095c-.439 0-.794-.325-.794-.726 0-.06.008-.118.024-.176l.794-2.905c.106-.389.537-.626.963-.529.426.097.686.491.58.88l-.795 2.906c-.088.324-.407.551-.772.55z"/></g><g fill="#03A9F4"><path d="M20.327 30.095c-.439 0-.794-.325-.794-.726 0-.06.008-.118.024-.176l.794-2.89v-.03l.794-2.89c.089-.323.406-.55.77-.55h2.022c1.096 0 1.986.812 1.986 1.815 0 .149-.02.297-.06.44l-.198.727c-.22.809-1.015 1.376-1.927 1.376h-1.995l-.644 2.354c-.088.324-.407.551-.772.55zm1.813-4.357h1.6c.182 0 .34-.114.384-.276l.199-.726c.054-.194-.073-.39-.285-.44a.42.42 0 00-.1-.012h-1.401l-.397 1.454zm6.682 4.357h-1.131c-1.217 0-2.203-.9-2.203-2.012 0-.165.022-.33.066-.489l.105-.386c.235-.867 1.088-1.475 2.065-1.472h1.131c1.216 0 2.202.901 2.202 2.013 0 .165-.022.329-.065.489l-.105.386c-.235.867-1.088 1.475-2.065 1.471zm-1.726-2.148c-.081.3.12.605.448.68a.72.72 0 00.147.016h1.13c.246 0 .46-.152.519-.369l.104-.386c.082-.3-.118-.605-.447-.68a.72.72 0 00-.147-.016h-1.13c-.246 0-.46.151-.519.369l-.105.386z"/><path d="M29.859 30.095c-.439 0-.794-.325-.794-.726 0-.06.008-.118.024-.176l.794-2.905c.106-.389.537-.626.963-.529.426.097.686.491.58.88l-.795 2.906c-.088.324-.407.551-.772.55z"/></g><g fill="#283593"><path d="M15.561 29.37a.816.816 0 01-.66-.324l-1.59-2.181c-.242-.331-.143-.782.221-1.004.366-.223.86-.133 1.103.2l1.588 2.18c.244.333.146.784-.218 1.007a.852.852 0 01-.443.123z"/><path d="M13.973 31.548c-.439 0-.794-.325-.794-.726a.69.69 0 01.184-.465L17.334 26a.848.848 0 011.12-.093.685.685 0 01.1 1.024l-3.971 4.357a.828.828 0 01-.61.26z"/></g><path fill="#03A9F4" d="M33.036 30.096c-.439 0-.794-.326-.794-.727 0-.059.008-.118.024-.175l1.588-5.81c.106-.39.538-.627.964-.53.426.097.685.492.579.881l-1.589 5.81c-.088.324-.407.551-.772.55z"/><path fill="#283593" d="M24.403 2.302c-.763-.799-1.867-1.257-3.028-1.256h-8.991c-.385 0-.714.251-.782.597L8.425 17.62c-.078.395.208.773.64.844a.839.839 0 00.141.012h4.766c.365 0 .683-.227.77-.55l1.44-5.26h2.556c3.125-.011 5.77-2.112 6.22-4.939l.397-2.482c.164-1.06-.183-2.134-.952-2.943z"/></g></svg>