<svg xmlns="http://www.w3.org/2000/svg" width="33" height="32" viewBox="0 0 33 32"><g fill="none" fill-rule="evenodd" opacity=".5"><path fill="#FFF" d="M16.571 2.667C9.208 2.667 3.238 8.636 3.238 16c0 5.65 3.514 10.474 8.475 12.416-.117-1.054-.223-2.672.046-3.823.242-1.042 1.563-6.628 1.563-6.628s-.399-.799-.399-1.98c0-1.854 1.075-3.238 2.413-3.238 1.136 0 1.686.855 1.686 1.878 0 1.143-.727 2.853-1.104 4.439-.315 1.326.665 2.41 1.975 2.41 2.37 0 4.19-2.5 4.19-6.106 0-3.192-2.293-5.424-5.568-5.424-3.794 0-6.02 2.845-6.02 5.785 0 1.146.44 2.376.992 3.043a.4.4 0 01.092.383l-.37 1.51c-.059.245-.193.298-.447.18-1.665-.776-2.706-3.21-2.706-5.166 0-4.205 3.055-8.069 8.81-8.069 4.625 0 8.22 3.297 8.22 7.701 0 4.596-2.897 8.294-6.92 8.294-1.35 0-2.62-.701-3.055-1.531l-.83 3.17c-.302 1.158-1.114 2.61-1.658 3.495 1.248.386 2.574.595 3.948.595 7.364 0 13.334-5.97 13.334-13.334S23.935 2.667 16.571 2.667"/><path d="M3.238 2.667h26.667v26.667H3.238z"/></g></svg>