<svg xmlns="http://www.w3.org/2000/svg" xmlns:xlink="http://www.w3.org/1999/xlink" width="40" height="40" viewBox="0 0 40 40"><defs><rect id="prefix__a" width="40" height="40" x="0" y="0" rx="4"/></defs><g fill="none" fill-rule="evenodd"><mask id="prefix__b" fill="#fff"><use xlink:href="#prefix__a"/></mask><use fill="#F5F5F5" xlink:href="#prefix__a"/><g mask="url(#prefix__b)"><path fill="#B8413D" d="M15.833 22.5l2.084-6.666h4.166l2.084 6.666zM5.208 24.167L2.5 40h5.417l5.416-15.833zm21.459 0L32.083 40H37.5l-2.708-15.833z"/><path fill="#D14A45" d="M3.333 21.889L20 18.334l16.667 3.555L20 48.334z"/><path fill="#FFF" fill-rule="nonzero" d="M17.59 31.748a3.9 3.9 0 001.334-.217c.402-.145.712-.35.932-.613v-2.364h-2.332v.9h1.111v1.02c-.195.196-.522.294-.98.294-.456 0-.802-.159-1.038-.476-.236-.318-.354-.787-.354-1.408v-.379c.003-.615.113-1.08.33-1.391.217-.312.533-.468.948-.468.325 0 .58.079.767.236.186.157.306.405.36.744h1.188c-.073-.64-.308-1.127-.704-1.462-.396-.335-.945-.503-1.648-.503-.504 0-.945.115-1.32.344-.376.23-.664.56-.863.993-.2.432-.299.944-.299 1.536v.403c.005.575.113 1.075.324 1.501.21.426.508.75.895.975.386.223.836.335 1.349.335zm7.405-.081v-.98h-2.75v-1.588h2.343v-.956h-2.344v-1.412h2.743v-.988h-3.964v5.924h3.972z"/><path fill="#D14A45" d="M19.997 4.167l-3.801.437-2.863 4.197 3.256 7.497 3.412 1.202 3.41-1.202 3.256-7.497-2.862-4.197-3.802-.437z"/></g></g></svg>