<svg xmlns="http://www.w3.org/2000/svg" width="17" height="17" viewBox="0 0 17 17"><g fill="none" fill-rule="evenodd"><path fill="#FFF" fill-opacity="0" d="M.25.25h16v16h-16z"/><path fill="#fff" d="M14.877 10.999c-.033.71-.146 1.194-.31 1.618-.17.438-.399.81-.77 1.18-.37.371-.742.6-1.18.77-.424.164-.909.277-1.618.31-.711.032-.938.04-2.749.04-1.81 0-2.038-.008-2.749-.04-.71-.033-1.194-.146-1.618-.31a3.256 3.256 0 01-1.18-.77c-.371-.37-.6-.742-.77-1.18-.164-.424-.277-.909-.31-1.618-.032-.711-.04-.938-.04-2.749 0-1.81.008-2.038.04-2.749.033-.71.146-1.194.31-1.618.17-.438.399-.81.77-1.18.37-.371.742-.6 1.18-.77.424-.164.909-.277 1.618-.31.711-.032.938-.04 2.749-.04 1.81 0 2.038.008 2.749.04.71.033 1.194.146 1.618.31.438.17.81.399 1.18.77.371.37.6.742.77 1.18.164.424.277.909.31 1.618.032.711.04.938.04 2.749 0 1.81-.008 2.038-.04 2.749zM13.545 5.62c-.029-.634-.134-.979-.224-1.208a2.03 2.03 0 00-.486-.748 2.03 2.03 0 00-.748-.486c-.23-.09-.574-.195-1.208-.224-.686-.032-.892-.038-2.629-.038s-1.943.006-2.629.038c-.634.029-.979.134-1.208.224a2.03 2.03 0 00-.748.486 2.03 2.03 0 00-.486.748c-.09.23-.195.574-.224 1.208-.032.686-.038.892-.038 2.629s.006 1.943.038 2.629c.029.634.134.979.224 1.208.118.303.259.52.486.748.228.227.445.368.748.486.23.09.574.195 1.208.224.686.032.892.038 2.629.038s1.943-.006 2.629-.038c.634-.029.979-.134 1.208-.224a2.03 2.03 0 00.748-.486 2.03 2.03 0 00.486-.748c.09-.23.195-.574.224-1.208.032-.686.038-.892.038-2.629s-.006-1.943-.038-2.629zm-1.962-.038a.666.666 0 110-1.332.666.666 0 010 1.332zm-3.333 6a3.333 3.333 0 110-6.667 3.333 3.333 0 010 6.667zm0-5.332a2 2 0 10-.001 3.999A2 2 0 008.25 6.25z"/></g></svg>