<svg xmlns="http://www.w3.org/2000/svg" xmlns:xlink="http://www.w3.org/1999/xlink" width="16" height="16" viewBox="0 0 16 16"><defs><path id="prefix__a" d="M0 0h16v16H0z"/></defs><g fill="none" fill-rule="evenodd"><mask id="prefix__b" fill="#fff"><use xlink:href="#prefix__a"/></mask><path fill="#FFF" d="M5.763 15.888C3.997 10.068 7.73 7.944 7.73 7.944c-.26 3.105 1.504 5.525 1.504 5.525.649-.196 1.888-1.112 1.888-1.112 0 1.112-.654 3.53-.654 3.53s2.289-1.77 3.009-4.708c.72-2.94-1.37-5.89-1.37-5.89a7.884 7.884 0 01-1.957 5.69c.07-.08.127-.169.171-.265.248-.495.646-1.783.413-4.764C10.405 1.765 6.613 0 6.613 0c.327 2.55-.653 3.137-2.95 7.978-2.295 4.84 2.1 7.91 2.1 7.91z" mask="url(#prefix__b)"/></g></svg>