<svg xmlns="http://www.w3.org/2000/svg" width="17" height="17" viewBox="0 0 17 17"><g fill="none" fill-rule="evenodd"><path d="M.25.25h16v16h-16z"/><path fill="#fff" d="M6.598 10.316V5.84l4.323 2.245-4.323 2.23zm8.256-6.036c-.558-.529-1.183-.531-1.47-.562-2.052-.135-5.13-.135-5.13-.135h-.007s-3.079 0-5.131.135c-.287.03-.912.033-1.47.562-.44.402-.583 1.317-.583 1.317S.917 6.67.917 7.745V8.75c0 1.074.146 2.148.146 2.148s.143.914.583 1.317c.558.529 1.291.512 1.617.567 1.174.102 4.987.134 4.987.134s3.082-.005 5.134-.139c.287-.03.912-.033 1.47-.562.44-.403.583-1.317.583-1.317s.146-1.074.146-2.148V7.745c0-1.074-.146-2.148-.146-2.148s-.143-.915-.583-1.317z"/></g></svg>