<?xml version="1.0" encoding="utf-8"?><svg xmlns="http://www.w3.org/2000/svg" width="63" height="95" viewBox="0 0 63 95"><g fill="#FFF"><path d="M31.999 41C14.99 41 4 34.199 4 23.673 4 10.342 19.052 0 31.999 0 44.948 0 60 10.342 60 23.673 60 34.199 49.008 41 31.999 41zm0-38.071c-14.084 0-25.009 11.15-25.009 20.744C6.99 34.3 20.463 38.07 32 38.07s25.01-3.771 25.01-14.398c0-9.594-10.926-20.744-25.01-20.744z"/><path d="M32.006 47c-4.279 0-8.281-.955-11.813-1.797-4.178-.994-7.79-1.855-9.974-.62a1.483 1.483 0 11-1.468-2.578c3.2-1.818 7.34-.83 12.133.312 3.371.804 7.193 1.715 11.122 1.715 3.929 0 7.75-.911 11.122-1.715 4.786-1.142 8.921-2.127 12.117-.32a1.484 1.484 0 11-1.462 2.583c-2.18-1.23-5.789-.372-9.965.625-3.53.842-7.533 1.795-11.812 1.795zm-.113 48c-10.376 0-18.805-5.146-23.73-14.494-.374-.709-.082-1.576.654-1.938.736-.356 1.636-.077 2.01.632 4.39 8.33 11.871 12.917 21.066 12.917 9.355 0 16.909-4.725 21.27-13.308.365-.715 1.257-1.015 2-.659.742.35 1.047 1.213.684 1.929C51.027 89.56 42.297 95 31.893 95zM24 57a3 3 0 11-6 0 3 3 0 016 0z"/><path d="M6 86c-1.613 0-3.182-.972-4.67-12.704C.522 66.926 0 58.967 0 53.02c0-7.493.833-9.831 2.08-11.034 1.095-1.054 2.416-1.01 3.38-.972.175.005.356.013.54.013 5.378 0 6 9.412 6 16.489C12 57.803 11.741 86 6 86zM4.849 44c-.397 0-.573.035-.685.144-.436.419-1.165 2.128-1.165 8.877 0 10.795 1.565 25.055 3.075 29.181C7.391 78.912 9 68.372 9 57.517c0-12.841-2.5-13.491-3-13.491-.22 0-.438-.008-.65-.015A14.668 14.668 0 004.849 44zM57 86c-5.741 0-6-28.197-6-28.483 0-7.077.623-16.489 6-16.489.184 0 .365-.008.54-.013.964-.038 2.285-.082 3.38.972C62.168 43.19 63 45.527 63 53.021c0 5.946-.522 13.904-1.33 20.275C60.183 85.028 58.613 86 57 86zm1.15-42c-.136 0-.302.004-.5.011-.212.007-.43.015-.65.015-.5 0-3 .65-3 13.49 0 10.856 1.61 21.396 2.927 24.686 1.509-4.126 3.074-18.386 3.074-29.181 0-6.749-.73-8.458-1.164-8.877-.113-.11-.288-.144-.687-.144zM31.5 9C20.73 9 12 16.373 12 23s8.73 10 19.5 10S51 29.627 51 23 42.27 9 31.5 9zm-2.438 15.753c-.841 1.849-3.79 2.332-6.586 1.081-2.796-1.251-4.38-3.765-3.54-5.613.843-1.847 3.792-2.33 6.588-1.08 2.796 1.252 4.38 3.764 3.538 5.612zm11.461 1.081c-2.795 1.25-5.744.768-6.585-1.081-.843-1.848.742-4.36 3.538-5.612 2.797-1.25 5.746-.767 6.587 1.081.841 1.847-.743 4.36-3.54 5.612z"/><path d="M31.5 35C19.047 35 11 30.486 11 23.502 11 14.772 22.02 8 31.5 8S52 14.772 52 23.502C52 30.486 43.954 35 31.5 35zm0-24.023c-9.734 0-17.57 6.852-17.57 12.525 0 5.886 8.824 8.522 17.57 8.522s17.571-2.636 17.571-8.522c0-5.673-7.837-12.525-17.571-12.525zm5.786 17.546c-.39 0-.775-.03-1.146-.093-1.688-.284-2.998-1.218-3.595-2.562-.597-1.341-.419-2.958.489-4.433.804-1.308 2.116-2.427 3.697-3.151 1.582-.724 3.275-.988 4.773-.737 1.688.284 2.997 1.219 3.594 2.562.597 1.341.418 2.958-.49 4.433-.802 1.308-2.116 2.427-3.696 3.152-1.19.546-2.441.83-3.626.83zm3.075-8.091c-.769 0-1.62.194-2.424.564-1.044.48-1.927 1.216-2.42 2.018-.18.292-.568 1.033-.303 1.631.266.597 1.07.793 1.405.847.915.16 2.042-.03 3.087-.51 1.045-.48 1.927-1.215 2.42-2.017.18-.292.568-1.034.303-1.631-.266-.598-1.07-.794-1.404-.848a3.857 3.857 0 00-.664-.054zm-14.647 8.091c-1.185 0-2.437-.282-3.625-.829-1.58-.725-2.894-1.844-3.698-3.152-.907-1.475-1.085-3.092-.489-4.433.597-1.343 1.906-2.278 3.595-2.562 1.498-.252 3.19.008 4.772.737 1.58.724 2.893 1.843 3.698 3.15.907 1.476 1.085 3.093.488 4.434-.596 1.346-1.907 2.278-3.594 2.562a6.873 6.873 0 01-1.147.093zm-3.074-8.091c-.23 0-.453.017-.665.054-.334.054-1.138.25-1.404.848-.265.597.124 1.339.303 1.631.494.802 1.376 1.537 2.421 2.016 1.044.481 2.169.67 3.087.511.335-.054 1.139-.25 1.404-.847.265-.598-.122-1.339-.303-1.63-.492-.803-1.375-1.54-2.42-2.019-.803-.37-1.655-.564-2.423-.564z"/></g></svg>