<?xml version="1.0" encoding="utf-8"?><svg xmlns="http://www.w3.org/2000/svg" width="65" height="80" viewBox="0 0 65 80"><path fill="#FFF" d="M27.258 79.903c-1.182 0-3.312-.494-4.767-1.95-1.159-1.158-2.144-3.225-2.595-4.268-.704.167-1.79.28-2.623-.294-.893-.613-1.514-2.418-2.454-5.311-.246-.756-.5-1.537-.758-2.266-.65-1.837-2.089-4.268-3.244-6.221-.655-1.106-1.22-2.062-1.556-2.756-.783-1.617-1.496-5.121-1.744-6.425-1.45-.346-5.394-1.727-6.803-6.66-1.504-5.264 2.044-9.904 2.96-10.988l-.05-1.818c-.29-1.033-2.007-8.605 6.292-19.64C18.562-.192 31.405-.02 32.246.003c.841-.024 13.682-.196 22.329 11.303 8.298 11.035 6.582 18.607 6.291 19.64l-.05 1.818c.917 1.085 4.465 5.724 2.96 10.989l-.17-.05.17.05c-1.409 4.932-5.353 6.313-6.802 6.66-.248 1.303-.962 4.808-1.744 6.424-.336.694-.901 1.65-1.556 2.756-1.155 1.953-2.594 4.384-3.245 6.221-.258.73-.512 1.51-.757 2.266-.94 2.893-1.562 4.698-2.454 5.311-.835.573-1.92.461-2.623.294-.452 1.043-1.436 3.11-2.595 4.269-1.667 1.667-4.22 2.072-5.218 1.919-.725-.112-3.79-.787-4.536-.953-.747.166-3.812.841-4.537.953-.127.02-.28.03-.451.03zm-5.905-6.552c.448 1.001 1.275 2.664 2.175 3.565 1.288 1.288 3.353 1.6 3.957 1.506.61-.094 3.276-.675 4.6-.97a.75.75 0 01.32 0c1.324.295 3.99.876 4.6.97.605.093 2.669-.218 3.956-1.506 1.342-1.342 2.514-4.363 2.526-4.393a.73.73 0 01.282-.35L40.35 61.537c-.18-.238-1.792-2.084-8.38-2.084-6.482 0-7.727 1.772-7.862 2.006L21.6 72.943a.728.728 0 01-.248.408zm24.01-1.019c.37.045.764.028 1.023-.15.527-.363 1.315-2.786 1.89-4.556.248-.764.505-1.555.77-2.302.698-1.972 2.177-4.47 3.365-6.479.638-1.078 1.189-2.01 1.498-2.648.607-1.254 1.203-3.954 1.506-5.462-1.416.236-4.029.505-7.28.088a21.878 21.878 0 01-.512-.071.727.727 0 01-.09.438l-5.714 10.118 3.543 11.024zM9.075 50.735c.303 1.509.899 4.209 1.506 5.463.309.638.86 1.57 1.498 2.648 1.188 2.008 2.666 4.506 3.365 6.478.264.747.521 1.538.77 2.302.575 1.77 1.362 4.193 1.89 4.556.526.361 1.603.06 1.939-.076a.716.716 0 01.25-.052l2.34-10.724-5.54-10.613a22.91 22.91 0 01-.738.107c-3.251.416-5.864.147-7.28-.089zm24.235 7.276c4.41.177 6.553 1.211 7.556 1.997l2.983-5.282c-2.27 1.532-5.693 3.038-10.54 3.285zm-12.42-3.19l2.66 5.095c.952-.788 2.942-1.731 7.056-1.903-4.438-.234-7.576-1.646-9.716-3.193zm-2.264-4.407c1.097 1.696 4.794 6.165 13.282 6.165 9.747 0 13.867-5.434 14.322-6.081-3.57-.777-5.09-2.116-5.162-2.182a.733.733 0 01.98-1.092c.032.028 1.857 1.578 6.271 2.144 4.057.52 7.105-.108 7.742-.256a.766.766 0 01.185-.05 6.269 6.269 0 001.2-.321 6.016 6.016 0 01-5.783-6.005 6.016 6.016 0 016.009-6.01c1.93 0 3.65.915 4.75 2.332-.735-3.164-2.858-5.495-2.888-5.527a.745.745 0 01-.196-.52l.062-2.201a.767.767 0 01.035-.207c.023-.07 2.216-7.442-6.035-18.414C45.12 1.176 32.399 1.467 32.27 1.47h-.05c-.13-.008-12.852-.295-21.132 10.717C2.79 23.223 5.029 30.53 5.053 30.603a.719.719 0 01.036.206l.061 2.202a.732.732 0 01-.195.52c-.03.032-2.143 2.364-2.882 5.52a6 6 0 014.744-2.324 6.016 6.016 0 016.009 6.009 6.017 6.017 0 01-5.783 6.005 6.336 6.336 0 001.202.322.728.728 0 01.179.048c.63.147 3.68.779 7.745.257 4.433-.568 6.254-2.128 6.272-2.144a.735.735 0 011.034.062c.268.3.245.76-.054 1.03-.07.063-1.487 1.313-4.794 2.098zm39.047-12.22a4.547 4.547 0 00-4.542 4.541c0 2.505 2.038 4.542 4.542 4.542s4.541-2.037 4.541-4.542a4.545 4.545 0 00-4.541-4.54zm-50.857 0a4.546 4.546 0 00-4.542 4.541 4.546 4.546 0 004.542 4.542 4.545 4.545 0 004.54-4.542 4.545 4.545 0 00-4.54-4.54zm36.287-2.4c-1.636 0-3.144-.368-4.067-1.212-1.243-1.136-1.605-3.315-1.69-4.943a2.62 2.62 0 01.02-.494c-1.175.718-2.113 1.273-3.25.917a3.274 3.274 0 01-1.715-1.234 3.278 3.278 0 01-1.715 1.234c-1.16.361-2.11-.22-3.316-.957l-.285-.174c.05.229.07.467.057.708-.085 1.628-.447 3.807-1.69 4.943-1.892 1.73-6.236 1.46-9.108.124-3.066-1.428-4.75-3.132-5.005-5.065-.152-1.157-.057-2.164.25-2.947-2.68.498-4.495 1.184-4.529 1.197a.734.734 0 01-.528-1.37c.208-.08 3.974-1.506 8.804-1.767a18.147 18.147 0 013.053.006c.627.039 1.262.102 1.901.194 4.063.587 6.34 1.978 7.845 2.899 1.074.656 1.61.965 2.112.808.521-.162.909-.504 1.151-1.015.167-.35.256-.77.266-1.203v-.178c-.01-.399-.086-.8-.228-1.156a.735.735 0 01.964-.95.732.732 0 01.965.95 3.361 3.361 0 00-.23 1.334c.012.433.1.854.267 1.203.243.511.63.852 1.151 1.015.5.157 1.039-.152 2.112-.808 1.506-.92 3.782-2.312 7.845-2.899.158-.023.315-.044.472-.063a18.066 18.066 0 013.73-.167c5.188.141 9.338 1.713 9.556 1.797a.734.734 0 01-.528 1.37c-.035-.014-2.002-.757-4.867-1.257.326.79.43 1.82.274 3.007-.254 1.934-1.938 3.638-5.005 5.065-1.468.684-3.324 1.088-5.039 1.088zm-3.847-7.219c-.298.23-.464.599-.444.987.099 1.886.541 3.32 1.215 3.937 1.254 1.147 4.897 1.086 7.497-.124 2.546-1.185 3.987-2.543 4.17-3.926.137-1.047.075-2.864-1.034-3.032-.461-.07-1.1-.166-1.892-.218a23.437 23.437 0 00-3.557.142c-.282.042-.573.092-.871.15a3.192 3.192 0 013.551 3.168 3.192 3.192 0 01-3.189 3.189 3.192 3.192 0 01-3.188-3.189c0-1.414.926-2.616 2.203-3.032a18.8 18.8 0 00-.555.14c-1.977.533-3.215 1.277-3.906 1.808zM15.25 26.236a23.33 23.33 0 00-1.42.182c-1.108.168-1.171 1.984-1.033 3.032.182 1.383 1.623 2.74 4.169 3.925 2.6 1.21 6.243 1.27 7.497.124.674-.615 1.116-2.05 1.215-3.936.02-.39-.146-.758-.444-.988-.69-.53-1.93-1.274-3.907-1.807a17.502 17.502 0 00-3.05-.542 25.01 25.01 0 00-3.027.01zm29.454 1.703c-.948 0-1.72.772-1.72 1.72a1.721 1.721 0 101.72-1.719zm-25.64 4.909a3.192 3.192 0 01-3.188-3.189 3.191 3.191 0 013.188-3.188 3.192 3.192 0 013.189 3.188 3.192 3.192 0 01-3.189 3.189zm0-4.909c-.948 0-1.72.772-1.72 1.72a1.721 1.721 0 101.72-1.719z"/></svg>