<?xml version="1.0" encoding="utf-8"?><svg xmlns="http://www.w3.org/2000/svg" width="80" height="80" viewBox="0 0 80 80"><path fill="#FFF" d="M7.972 79.694a.842.842 0 01-.596-.247l-7.13-7.13a.842.842 0 01.114-1.285l7.011-4.892a6.788 6.788 0 011.927-5.311l.01-.011.003-.003.004-.003v-.001l.002-.002.002-.002.002-.003.004-.004.004-.004s.002-.001.002-.003l.008-.008h.001l.006-.006a6.726 6.726 0 015.707-1.899l10.991-10.523a6.375 6.375 0 011.767-5.552l.003-.002.002-.003.004-.005.003-.002.002-.002v-.001l.006-.006.002-.002.001-.001.004-.005a6.377 6.377 0 014.538-1.88c.421 0 .84.042 1.25.123a.846.846 0 01.606-.502l8.21-7.86a4.567 4.567 0 011.334-3.214l.006-.006.045-.045a4.53 4.53 0 013.374-1.29l6.447-6.172a4.575 4.575 0 011.29-3.65l.003-.002.002-.003.009-.008c0-.002.002-.002.002-.003l.002-.002h.001c0-.002.003-.003.003-.004l.002-.002.003-.004a4.545 4.545 0 013.875-1.295l6.496-6.218a4.05 4.05 0 011.11-3.255l.047-.048.002-.002.003-.003.002-.003.002-.001c0-.002.003-.004.003-.004l.04-.039a4.04 4.04 0 012.84-1.154c.205 0 .41.015.612.046L75.51 1c.863-.827 1.66-1 2.175-1 .824 0 1.529.45 1.838 1.175.394.922.082 2.045-.835 3.003L73.411 9.69a4.085 4.085 0 01-1.13 3.474l-.001.002-.002.002-.003.003-.002.002-.003.003-.001.002-.005.004a4.078 4.078 0 01-3.315 1.17l-3.155 3.295a.842.842 0 11-.242.252l-2.82 2.947a4.538 4.538 0 01-1.226 3.804l-.053.054v.001l-.003.003-.002.002-.003.003-.002.003-.002.002-.005.005a4.576 4.576 0 01-3.677 1.318l-6.17 6.446a4.545 4.545 0 01-1.255 3.336.829.829 0 01-.156.157 4.547 4.547 0 01-3.147 1.268l-8.375 8.748a6.45 6.45 0 01-1.114 5.124l-.004.005-.002.003v.002a6.878 6.878 0 01-.543.64.841.841 0 01-.152.152 6.374 6.374 0 01-4.466 1.81c-.35 0-.698-.029-1.042-.085l-1.178 1.23a.858.858 0 01-.249.26l-9.096 9.501a6.784 6.784 0 01-1.67 5.466l-.027.03-.002.002-.002.003-.005.005-.002.003-.004.005-.123.13a.869.869 0 01-.151.152 6.743 6.743 0 01-5.273 1.888l-4.891 7.01a.846.846 0 01-.688.362zm-5.823-7.856l5.708 5.708 3.917-5.615a6.726 6.726 0 01-2.444-1.566 6.754 6.754 0 01-1.567-2.445L2.15 71.838zm11.053-1.258c.03.002.06.005.09.01.273.044.551.067.828.067a5.041 5.041 0 003.523-1.42l.064-.063.002-.003.003-.003c.05-.05.1-.102.147-.154l.003-.003.001-.001.002-.002.003-.003.001-.002.002-.003a5.097 5.097 0 001.212-4.461.565.565 0 01-.011-.07 5.064 5.064 0 00-1.366-2.482 5.052 5.052 0 00-2.482-1.366.786.786 0 01-.07-.012 5.172 5.172 0 00-1.046-.108 5.048 5.048 0 00-3.574 1.47c0 .001 0 .002-.002.002l-.001.003-.003.002-.004.004-.005.005-.002.002v.001l-.001.001-.002.003-.002.002-.003.002-.002.003-.01.01a5.1 5.1 0 00-1.393 4.392c.005.03.008.061.01.092a5.044 5.044 0 001.405 2.68 5.055 5.055 0 002.682 1.406zm3.72-11.156c.73.333 1.4.796 1.976 1.373a6.764 6.764 0 011.373 1.975l9.28-9.695a6.413 6.413 0 01-2.934-2.934l-9.694 9.28zm14.237-7.535c.032.004.063.01.095.018.37.09.751.136 1.133.136a4.693 4.693 0 003.339-1.381l.002-.003c.003 0 .002-.002.003-.003.165-.165.317-.342.455-.528v-.001l.002-.002a4.76 4.76 0 00.733-4.138l-.01-.04a4.736 4.736 0 00-3.161-3.163l-.043-.012a4.751 4.751 0 00-1.33-.19c-1.236 0-2.398.47-3.284 1.326l-.061.06-.003.003-.002.002-.002.002-.003.003-.003.003-.001.002-.004.004a4.704 4.704 0 00-1.227 4.453.794.794 0 01.018.095 4.724 4.724 0 001.227 2.127 4.72 4.72 0 002.127 1.227zm4.296-10.206a6.41 6.41 0 012.557 2.557l7.094-7.41a4.598 4.598 0 01-1.321-.92 4.592 4.592 0 01-.92-1.321l-7.41 7.094zm11.268-6.133c.014 0 .027.002.041.003a2.884 2.884 0 002.3-.834l.003-.003v-.001a2.87 2.87 0 00.815-2.42c-.003-.024-.006-.048-.007-.072a2.864 2.864 0 00-.811-1.593 2.857 2.857 0 00-1.594-.811l-.07-.007a2.892 2.892 0 00-2.424.818l-.002.002-.002.002a2.886 2.886 0 00-.83 2.296l.002.039a2.893 2.893 0 002.579 2.581zm2.393-6.946a4.612 4.612 0 011.974 1.974l4.878-5.097a4.597 4.597 0 01-1.756-1.756l-5.096 4.88zm8.467-4.291l.041.007a2.902 2.902 0 002.625-.786l.003-.003.003-.003.001-.002.002-.001c0-.001 0-.002.002-.003a2.872 2.872 0 00.745-2.734l-.015-.073a2.891 2.891 0 00-2.014-2.013.578.578 0 01-.07-.014 2.916 2.916 0 00-2.746.757l-.002.001v.002h-.002l-.002.003-.002.002-.003.004-.003.003a2.888 2.888 0 00-.772 2.61l.007.043c.118.538.387 1.028.78 1.42a2.87 2.87 0 001.422.78zm3.03-6.714a4.556 4.556 0 011.483 1.483l5.11-5.34a4.091 4.091 0 01-1.254-1.254l-5.34 5.11zm8.169-4.985a.72.72 0 01.064.012 2.401 2.401 0 002.232-.633l.002-.003.002-.002.002-.002v-.001l.002-.001v-.002l.007-.006a2.394 2.394 0 00.593-2.317l-.012-.048a2.387 2.387 0 00-1.591-1.592l-.049-.012a2.41 2.41 0 00-2.333.609H67.7v.001h-.001v.001l-.003.003-.002.002a2.377 2.377 0 00-.626 2.225c.005.021.01.043.012.066a2.383 2.383 0 001.701 1.699zm2.938-5.649a4.089 4.089 0 011.009 1.01l4.747-4.96c.48-.502.599-.953.503-1.177-.043-.101-.14-.153-.29-.153-.136 0-.508.052-1.01.533L71.72 6.965z"/></svg>