<?xml version="1.0" encoding="utf-8"?><svg xmlns="http://www.w3.org/2000/svg" width="128" height="128" viewBox="0 0 128 128"><g fill="none" fill-rule="evenodd"><path fill="#D3F6FB" d="M126.157 35.545l-10.961 77.997-77.567 13.677L.652 57.675 55.365 1.018z" opacity=".75"/><path fill="#E61A1A" d="M20 10h15v108H20z"/><path fill="#000" fill-rule="nonzero" d="M76.806 36.371v-3.516c0-4.847-3.943-8.79-8.79-8.79-4.847 0-8.79 3.943-8.79 8.79v3.516c0 2.86 1.394 5.381 3.516 6.987v2.234l-8.481 2.423a5.302 5.302 0 00-3.826 5.073v23.718h3.517V53.088c0-.78.524-1.476 1.276-1.69l11.03-3.153v-3.261a8.787 8.787 0 003.516 0v3.26l11.03 3.151a1.769 1.769 0 011.277 1.693v23.718h3.516V53.088a5.3 5.3 0 00-3.826-5.072l-8.48-2.422v-2.235c2.121-1.607 3.515-4.128 3.515-6.988zm-8.79 5.274a5.28 5.28 0 01-5.274-5.274v-3.516c0-2.908 2.366-5.274 5.274-5.274s5.274 2.366 5.274 5.274v3.516a5.28 5.28 0 01-5.274 5.274zM98 17v35h3V17l3 3 2-3-6.5-6-6.5 6 2 3z"/><path fill="#000" fill-rule="nonzero" d="M106 111l-2-2-3 2V77h-3v34l-2-2-3 2 4 4H79V57h-4v58h-5V75h-4v40h-5V57h-4v58H40V21h35V10H22v105h-5v4h95v-4h-10l4-4zM40 13h32v5H40v-5zm-3 12h-4v3h4v4h-7v3h7v4h-4v3h4v4h-7v3h7v4h-4v3h4v4h-7v3h7v4h-4v3h4v4h-7v3h7v4h-4v3h4v4h-7v3h7v4h-4v3h4v4h-7v3h7v4h-4v3h4v4H26V13h11v12z"/><path fill="#E61A1A" d="M56 74l21-29 7 3-28 34z"/><path fill="#000" fill-rule="nonzero" d="M98 56h3v3h-3zm0 14h3v3h-3zm0-7h3v3h-3z"/><path fill="#E61A1A" d="M68 32l-10-3v6l10 3 10-3v-6zM52 81l4-4v17l-4-3z"/></g></svg>