<?xml version="1.0" encoding="utf-8"?><svg xmlns="http://www.w3.org/2000/svg" width="128" height="128" viewBox="0 0 128 128"><g fill="none" fill-rule="evenodd"><path fill="#D3F6FB" d="M126.157 35.545l-10.961 77.997-77.567 13.677L.652 57.675 55.365 1.018z" opacity=".75"/><path fill="#E61A1A" d="M20 83c-.903.86-8.418 5.096-8.418 7.017L12 102h15V87l-7-4z"/><path fill="#C7CFE2" fill-rule="nonzero" d="M40.988 86.97a5.069 5.069 0 011.03 3.048V101.7h-6.763v-8.52c0-1.027.467-2 1.269-2.64l4.464-3.572z"/><path fill="#E61A1A" d="M112.739 82.77l-8.158-2.33-5.072 6.043L100 102l16.418-.3V87.649a5.072 5.072 0 00-3.68-4.878z"/><path d="M99.509 78.028c-5.603 0-10.145-4.542-10.145-10.145 0-2.165.86-4.242 2.39-5.773l1.666-1.665a3.34 3.34 0 012.455-.994c5.405.17 10.19 1.328 12.805 3.883.64.625.974 1.5.974 2.394v2.155c0 5.603-4.542 10.145-10.145 10.145z"/><path fill="#E61A1A" d="M64 81.41L58 87l-7-8-11.293 4.173a6.763 6.763 0 00-4.452 6.356v12.172L64 102V81.41zM70 88l7-9-2-5-11 8z"/><path d="M64 71.265c-9.339 0-16.909-7.57-16.909-16.909v-1.69l2.814-1.877a5.071 5.071 0 002.259-4.22v-5.74s13.526-5.073 23.673 3.381v2.357c0 1.696.847 3.28 2.258 4.221l2.814 1.876v1.691c0 9.338-7.57 16.909-16.909 16.909z"/><path fill="#000" fill-rule="nonzero" d="M103.87 62.533a1.58 1.58 0 002.122-.707 1.583 1.583 0 00-.707-2.123c-3.675-1.837-10.566-1.858-10.857-1.858a1.582 1.582 0 100 3.164c1.778 0 6.94.274 9.442 1.524zm5.782 27.451c-.874 0-1.582.709-1.582 1.582v10.15a1.582 1.582 0 103.164-.001V91.566c0-.873-.709-1.582-1.582-1.582zM53.761 42.25c0-.054.036-.1.083-.107 2.039-.307 6.085-.782 10.278-.502 4.933.328 8.506 1.567 10.62 3.68a1.58 1.58 0 002.237 0 1.58 1.58 0 000-2.236c-5.983-5.985-18.502-4.84-23.607-4.07a3.247 3.247 0 00-2.775 3.235v3.645a1.582 1.582 0 003.164 0V42.25z"/><g fill="#000" fill-rule="nonzero"><path d="M105.285 59.703c-3.675-1.837-10.566-1.858-10.857-1.858a1.582 1.582 0 100 3.164c1.778 0 6.94.274 9.442 1.524a1.58 1.58 0 002.122-.707 1.583 1.583 0 00-.707-2.123z"/><path d="M113.172 82.227l-6.534-1.866a.664.664 0 01-.479-.636v-2.18c.532-.369 1.039-.78 1.513-1.24a11.642 11.642 0 003.562-8.42v-3.01l.632-1.263a10.099 10.099 0 001.06-4.49v-8.153c0-.874-.709-1.582-1.583-1.582H96.12c-5.535 0-10.04 4.504-10.04 10.04v.094c0 1.29.305 2.58.882 3.733l.81 1.62v2.585c0 4.095 2.018 7.77 5.075 9.98v2.286c0 .353 0 .498-1.306.872l-3.188.91-9.223-3.353a1.577 1.577 0 00-.43-1.211l-2.948-3.096v-5.198c.312-.256.619-.52.917-.799a18.57 18.57 0 005.85-13.498v-4.15a18.304 18.304 0 001.691-7.691V25.596c0-.874-.708-1.582-1.582-1.582H58.945c-8.334 0-15.114 6.78-15.114 15.114v3.383c0 2.663.569 5.248 1.692 7.69v3.572c0 5.914 2.63 11.242 6.766 14.754v5.32l-2.947 3.096a1.575 1.575 0 00-.431 1.211l-9.734 3.54a8.313 8.313 0 00-1.956 1.024l-1.528-.764c4.55-1.98 5.99-4.766 6.06-4.904a1.58 1.58 0 000-1.415c-1.14-2.281-1.279-6.462-1.39-9.821a87.856 87.856 0 00-.138-3.116c-.54-7.589-6.308-13.311-13.42-13.311-7.11 0-12.879 5.722-13.418 13.31a85.575 85.575 0 00-.139 3.117c-.11 3.36-.25 7.54-1.39 9.82-.222.446-.222.97 0 1.416.07.138 1.508 2.918 6.067 4.9l-4.245 2.124A6.621 6.621 0 0010 90.028v11.687a1.582 1.582 0 103.164 0V90.028c0-1.332.74-2.529 1.93-3.124l5.287-2.644 1.84 1.748c1.285 1.222 2.935 1.833 4.585 1.833s3.3-.611 4.585-1.833l1.84-1.747 1.723.862a8.324 8.324 0 00-1.272 4.417v12.176a1.582 1.582 0 103.164 0V89.54c0-2.172 1.37-4.13 3.412-4.872l10.263-3.732 4.272 6.408a3.259 3.259 0 002.727 1.458c.865 0 1.693-.34 2.311-.959l2.607-2.606v16.48a1.581 1.581 0 103.164-.001v-16.48l2.606 2.607a3.257 3.257 0 002.638.943 3.257 3.257 0 002.4-1.441l4.273-6.409 10.263 3.732a5.2 5.2 0 013.412 4.872v12.176a1.582 1.582 0 103.164 0V89.54a8.36 8.36 0 00-2.34-5.788l.391-.112c.394-.113.932-.267 1.472-.532l4.04 4.04v14.568a1.581 1.581 0 103.164 0V87.148l4.01-4.011c.214.108.438.2.674.267l6.534 1.867a3.508 3.508 0 012.533 3.358v13.087a1.582 1.582 0 103.164 0V88.63a6.686 6.686 0 00-4.828-6.402zM20.15 79.433c-2.959-1.065-4.443-2.484-5.077-3.26.432-1.129.712-2.422.902-3.788a11.792 11.792 0 004.175 5.152v1.896zm9.063 4.282a3.491 3.491 0 01-4.812 0l-1.471-1.399c.248-.465.385-.992.385-1.544v-1.687a11.77 11.77 0 006.985.001v1.685c0 .553.136 1.08.384 1.546l-1.47 1.398zm-2.405-7.263c-4.724 0-8.568-3.843-8.568-8.567a1.582 1.582 0 00-1.842-1.559l.014-.407c.036-1.088.07-2.115.132-2.997.202-2.842 1.338-5.462 3.199-7.376a9.779 9.779 0 017.064-2.995 9.781 9.781 0 017.065 2.995c1.86 1.914 2.996 4.534 3.198 7.376.063.881.097 1.909.133 2.996l.01.283c-1.722-2.652-4.38-4.607-7.815-5.71-3.173-1.02-5.902-.957-6.017-.954a1.58 1.58 0 00-1.095.484L19.43 62.98a1.583 1.583 0 002.278 2.197l2.375-2.464c2.045.1 8.626.865 11.185 6.5a8.546 8.546 0 01-8.461 7.238zm6.655 2.986v-1.886a11.704 11.704 0 004.177-5.158c.19 1.363.47 2.653.901 3.78-.63.768-2.121 2.2-5.078 3.264zm15.225-25.665v-3.925c0-.238-.054-.474-.158-.688a15.175 15.175 0 01-1.534-6.649v-3.383c0-6.589 5.361-11.95 11.95-11.95h22.1v15.334c0 2.303-.516 4.54-1.534 6.648-.104.215-.157.45-.157.688v4.504c0 4.285-1.723 8.259-4.85 11.19-.39.366-.796.709-1.215 1.028l-.027.02c-2.93 2.225-6.518 3.306-10.266 3.063-8.024-.52-14.31-7.495-14.31-15.88zm8.907 31.833c-.01.01-.036.036-.088.031a.1.1 0 01-.08-.048l-4.92-7.38 1.583-1.664 7.464 5.102-3.959 3.959zM64.02 79.5l-8.567-5.856v-2.953a17.807 17.807 0 007.339 2.119c.417.027.831.04 1.244.04a18.33 18.33 0 008.551-2.095v2.89L64.02 79.5zm6.594 6.09a.102.102 0 01-.08.047c-.052.007-.077-.02-.088-.031l-3.959-3.959 7.464-5.102 1.584 1.664-4.92 7.38zm28.888-1.336l-3.59-3.59c.063-.284.098-.596.098-.94v-.667a11.106 11.106 0 003.497.559c1.2 0 2.373-.181 3.488-.528v.637c0 .316.04.625.114.922l-3.607 3.607zm5.966-10.22a8.5 8.5 0 01-6.23 2.414c-4.578-.137-8.303-4.17-8.303-8.989v-2.957c0-.246-.057-.488-.167-.708l-.977-1.954a5.212 5.212 0 01-.547-2.319v-.094c0-3.791 3.084-6.876 6.875-6.876h13.642v6.57a6.91 6.91 0 01-.725 3.076l-.799 1.597c-.11.22-.167.462-.167.708v3.383a8.5 8.5 0 01-2.602 6.149z"/><path d="M109.652 89.984c-.874 0-1.582.709-1.582 1.582v10.15a1.582 1.582 0 103.164-.001V91.566c0-.873-.709-1.582-1.582-1.582zm-91.304 2.091c-.873 0-1.582.709-1.582 1.582v8.058a1.583 1.583 0 003.164 0v-8.058c0-.873-.708-1.582-1.582-1.582zm58.632-48.99c-5.984-5.984-18.503-4.84-23.608-4.07a3.247 3.247 0 00-2.775 3.235v3.645a1.582 1.582 0 003.164 0V42.25c0-.054.036-.1.083-.107 2.039-.307 6.085-.782 10.278-.502 4.933.328 8.506 1.567 10.62 3.68a1.58 1.58 0 002.237 0 1.58 1.58 0 000-2.236zM45.413 93.367c-.874 0-1.582.709-1.582 1.582v6.767a1.582 1.582 0 003.164 0v-6.767c0-.873-.708-1.582-1.582-1.582zm37.214 0c-.874 0-1.582.709-1.582 1.582v6.767a1.582 1.582 0 003.164 0v-6.767c0-.873-.708-1.582-1.582-1.582z"/></g></g></svg>