<?xml version="1.0" encoding="utf-8"?><svg xmlns="http://www.w3.org/2000/svg" width="128" height="128" viewBox="0 0 128 128"><g fill="none" fill-rule="evenodd"><path fill="#D3F6FB" d="M126.157 35.545l-10.961 77.997-77.567 13.677L.652 57.675 55.365 1.018z" opacity=".75"/><path stroke="#000" stroke-linecap="round" stroke-width="4" d="M44 85l41-41"/><path fill="#E61A1A" d="M21.36 90.347c2.28 1.728 3.825 4.25 4.329 7.14l.929 5.335c-2.154-1.394-3.736-3.67-4.215-6.439zM51.432 5.713c3.684-3.617 9.454-3.617 13.138 0l6.615 6.495a3.15 3.15 0 002.67.88l9.114-1.308c3.994-.574 7.737 1.437 9.581 4.818l-9.433 1.343a11.24 11.24 0 01-9.49-3.103l-7.954-7.744a3.81 3.81 0 00-5.344 0l-7.955 7.744a11.244 11.244 0 01-9.49 3.103l-10.958-1.56a3.83 3.83 0 00-4.324 3.162l-1.912 10.97c-.61 3.498-2.748 6.46-5.865 8.124l-9.777 5.22a3.865 3.865 0 00-1.652 5.116l4.86 10.007a11.42 11.42 0 010 10.04l-4.665 9.605c-2.65-2.825-3.405-7.098-1.62-10.807l4.043-8.393a3.268 3.268 0 000-2.85l-4.042-8.391c-2.25-4.673-.467-10.243 4.06-12.68l8.13-4.379a3.218 3.218 0 001.651-2.305l1.59-9.201c.886-5.123 5.553-8.566 10.629-7.837l9.114 1.308c.983.14 1.956-.18 2.67-.88zm49.832 27.795l3.705 1.994a9.515 9.515 0 014.314 4.792l-3.106-1.657a11.333 11.333 0 01-4.913-5.129z"/><path fill="#000" fill-rule="nonzero" d="M110.517 65.291a3.163 3.163 0 010-2.792l4.02-8.224a9.356 9.356 0 00-4.037-12.426l-8.086-4.29a3.16 3.16 0 01-1.641-2.26l-1.582-9.016a9.357 9.357 0 00-10.57-7.68l-9.064 1.282a3.158 3.158 0 01-2.655-.863l-6.58-6.364a9.355 9.355 0 00-13.065 0l-6.58 6.365c-.709.687-1.676 1-2.654.863l-9.064-1.282a9.355 9.355 0 00-10.57 7.68L26.807 35.3a3.16 3.16 0 01-1.64 2.259l-8.087 4.29a9.357 9.357 0 00-4.038 12.426l4.02 8.224a3.158 3.158 0 010 2.793l-4.02 8.224a9.356 9.356 0 004.038 12.425l8.086 4.291a3.16 3.16 0 011.641 2.259l1.582 9.016a9.35 9.35 0 009.224 7.775c.443 0 .894-.031 1.346-.095l9.064-1.282a3.155 3.155 0 012.655.863l6.58 6.364a9.36 9.36 0 006.532 2.658 9.37 9.37 0 006.533-2.658l6.579-6.364a3.16 3.16 0 012.655-.863l9.064 1.282a9.356 9.356 0 0010.57-7.68l1.582-9.016a3.159 3.159 0 011.64-2.259l8.087-4.29a9.359 9.359 0 004.038-12.427l-4.02-8.224zm-1.21 16.073l-8.443 4.5a9.794 9.794 0 00-5.065 7.004l-1.651 9.457a3.308 3.308 0 01-3.734 2.726l-9.465-1.345a9.714 9.714 0 00-8.195 2.675l-6.87 6.676a3.297 3.297 0 01-4.616 0l-6.87-6.676a9.713 9.713 0 00-8.196-2.675l-9.464 1.344a3.307 3.307 0 01-3.734-2.725l-1.652-9.458a9.79 9.79 0 00-5.065-7.003l-8.444-4.5a3.329 3.329 0 01-1.426-4.41l4.198-8.626a9.835 9.835 0 000-8.656l-4.198-8.627a3.33 3.33 0 011.426-4.41l8.444-4.5a9.79 9.79 0 005.065-7.003l1.651-9.458a3.309 3.309 0 013.735-2.725l9.464 1.345a9.721 9.721 0 008.195-2.675l6.87-6.676a3.295 3.295 0 014.616 0l6.87 6.676a9.722 9.722 0 008.196 2.675l9.464-1.345a3.307 3.307 0 013.734 2.725l1.652 9.458a9.788 9.788 0 005.065 7.003l8.444 4.5a3.329 3.329 0 011.426 4.41l-4.198 8.626a9.835 9.835 0 000 8.656l4.198 8.627a3.33 3.33 0 01-1.426 4.41z"/><path fill="#E61A1A" d="M50.5 34C57.944 34 64 39.832 64 47s-6.056 13-13.5 13S37 54.168 37 47s6.056-13 13.5-13zm0 12c-3.308 0-6 2.692-6 6s2.692 6 6 6 6-2.692 6-6-2.692-6-6-6zm26 20C83.944 66 90 71.832 90 79c0 4.29-2.169 8.1-5.506 10.47C82.893 84.01 77.674 80 71.5 80c-2.99 0-5.755.94-7.994 2.53A12.499 12.499 0 0163 79c0-7.168 6.056-13 13.5-13z"/><path fill="#000" fill-rule="nonzero" d="M51.356 35.92c-6.285 0-11.398 5.112-11.398 11.397 0 6.284 5.113 11.398 11.398 11.398 6.285 0 11.398-5.114 11.398-11.398 0-6.285-5.113-11.398-11.398-11.398zm.102 19c-4.135 0-7.5-3.365-7.5-7.501 0-4.135 3.365-7.5 7.5-7.5 4.136 0 7.5 3.365 7.5 7.5 0 4.136-3.364 7.5-7.5 7.5zm24.765 14.156c-6.284 0-11.397 5.113-11.397 11.397 0 6.285 5.113 11.398 11.397 11.398 6.285 0 11.398-5.113 11.398-11.398 0-6.284-5.113-11.397-11.398-11.397zm.103 19c-4.136 0-7.5-3.365-7.5-7.5 0-4.136 3.364-7.5 7.5-7.5 4.135 0 7.5 3.364 7.5 7.5 0 4.135-3.365 7.5-7.5 7.5z"/></g></svg>