<?xml version="1.0" encoding="utf-8"?><svg xmlns="http://www.w3.org/2000/svg" width="128" height="128" viewBox="0 0 128 128"><g fill="none" fill-rule="evenodd"><path fill="#D3F6FB" d="M126.157 35.545l-10.961 77.997-77.567 13.677L.652 57.675 55.365 1.018z" opacity=".75"/><path fill="#E61A1A" d="M69 18l46 19-45 20-47-20 46-19zm-5 13c-5.523 0-10 2.686-10 6s4.477 6 10 6 10-2.686 10-6-4.477-6-10-6z"/><path fill="#000" fill-rule="nonzero" d="M86.444 104.736a1.828 1.828 0 00-2.222 1.333l-1.834 7.333a1.833 1.833 0 103.557.891l1.833-7.333a1.833 1.833 0 00-1.334-2.224zM64 68.014c.238 0 .477-.046.7-.139l20.167-8.345a1.834 1.834 0 00-1.404-3.389L64 64.197l-51.333-21.24v-.61a1.835 1.835 0 00-3.667 0v1.834c0 .742.447 1.411 1.133 1.694l53.167 22c.223.093.462.14.7.14zm21.81 18.783a1.831 1.831 0 00-2.455-.833c-3.482 1.722-9.297 3.724-17.522 3.997V73.514a1.833 1.833 0 10-3.666 0v16.43C39.403 89.22 32.057 75.429 31 73.134V60.68a1.833 1.833 0 00-3.666 0v12.833c0 .233.044.464.13.682.319.794 8.122 19.485 36.536 19.485 9.932 0 16.891-2.41 20.98-4.43a1.83 1.83 0 00.83-2.454z"/><path fill="#E61A1A" d="M93 47h3v49h-3z"/><path fill="#000" fill-rule="nonzero" d="M91.5 106.514a1.833 1.833 0 00-1.833 1.833v5.5a1.834 1.834 0 103.666 0v-5.5c0-1.011-.82-1.833-1.833-1.833zm25.667-66a1.834 1.834 0 00-1.834 1.833v.605l-22 9.055v-3.313l24.534-10.153a1.835 1.835 0 00.003-3.388l-53.17-22a1.835 1.835 0 00-1.4 0l-53.167 22a1.834 1.834 0 000 3.388l53.167 22c.223.094.462.14.7.14a1.8 1.8 0 00.7-.14l19.225-7.954a1.832 1.832 0 10-1.401-3.387L64 56.864 15.627 36.847 64 16.831l48.373 20.016-21.049 8.71-20.161-7.527c.106-.381.17-.774.17-1.183 0-3.083-3.22-5.5-7.333-5.5-4.112 0-7.333 2.417-7.333 5.5 0 3.084 3.221 5.5 7.333 5.5 1.835 0 3.473-.5 4.745-1.307l20.922 7.812v45.166C87.538 94.78 86 96.794 86 99.181c0 3.032 2.468 5.5 5.5 5.5s5.5-2.468 5.5-5.5c0-2.387-1.538-4.402-3.667-5.163V83.612c5.264-3.972 7.15-9.263 7.233-9.498.066-.192.1-.396.1-.6V60.682A1.832 1.832 0 1097 60.681v12.495c-.317.777-1.419 3.173-3.667 5.538V55.973l24.532-10.096A1.834 1.834 0 00119 44.181v-1.833c0-1.012-.82-1.834-1.833-1.834zM64 38.681c-2.238 0-3.667-1.086-3.667-1.834s1.428-1.833 3.667-1.833 3.667 1.086 3.667 1.833c0 .749-1.429 1.834-3.667 1.834zm27.5 62.333c-1.012 0-1.833-.823-1.833-1.833s.821-1.833 1.833-1.833 1.833.823 1.833 1.833-.821 1.833-1.833 1.833zm7.278 5.055a1.833 1.833 0 10-3.556.891l1.833 7.333a1.834 1.834 0 003.557-.891l-1.834-7.333z"/></g></svg>