<?xml version="1.0" encoding="utf-8"?><svg xmlns="http://www.w3.org/2000/svg" width="128" height="128" viewBox="0 0 128 128"><g fill="none" fill-rule="evenodd"><path fill="#D3F6FB" d="M126.157 35.545l-10.961 77.997-77.567 13.677L.652 57.675 55.365 1.018z" opacity=".75"/><path fill="#E61A1A" d="M26 17h42v24H26z"/><path fill="#000" d="M72 11l10 10v34.544c-1.016.187-2.017.42-3 .698V24h-7a3 3 0 01-3-3v-7H38a3 3 0 00-3 3v2h29a2 2 0 012 2v16a2 2 0 01-2 2H35v30a3 3 0 002.824 2.995L38 72h21.131c-.54.971-1.03 1.972-1.472 3H38a6 6 0 01-6-6V39h-2a2 2 0 01-2-2V21a2 2 0 012-2h2v-2a6 6 0 016-6h34zM56.514 44.12c.302-.16.67-.16.972 0l9 4.792c.317.17.514.49.514.838v11.5a.954.954 0 01-.514.838l-9 4.791c-.302.161-.67.161-.972 0l-9-4.791A.955.955 0 0147 61.25v-11.5c0-.348.197-.669.514-.838zM49 52v8.569L56 64v-8.569L49 52zm16 0l-7 3.43V64l7-3.43V52zm-8-6l-8 4 8 4 8-4-8-4zm6-25H31a1 1 0 00-1 1v14a1 1 0 001 1h32a1 1 0 001-1V22a1 1 0 00-1-1zm-24.776 3c.478 0 .934.06 1.369.18.434.12.889.288 1.363.505l-.63 1.604-.238-.101a7.799 7.799 0 00-.98-.345 3.733 3.733 0 00-.947-.126c-.37 0-.653.09-.85.272a.922.922 0 00-.296.712c0 .182.04.34.12.476.08.135.206.266.38.393.174.126.587.353 1.237.681.86.435 1.45.871 1.77 1.308.319.437.478.972.478 1.607 0 .878-.3 1.57-.897 2.076-.598.505-1.43.758-2.496.758-.983 0-1.851-.195-2.607-.585v-1.917l.26.12c.51.23.948.396 1.317.5.43.119.824.179 1.18.179.429 0 .757-.087.986-.26.229-.173.343-.43.343-.772 0-.19-.05-.36-.151-.509a1.74 1.74 0 00-.444-.429c-.195-.137-.593-.357-1.193-.658-.562-.28-.984-.548-1.265-.805a2.998 2.998 0 01-.674-.899c-.168-.341-.252-.74-.252-1.197 0-.86.276-1.537.828-2.03.552-.492 1.315-.738 2.289-.738zM51 24v1.765h-2.877V34h-2.246v-8.235H43V24h8zm4.06 0v8.249H59V34h-6V24h2.06z"/><path fill="#E61A1A" d="M112 91c0 14.912-12.088 27-27 27s-27-12.088-27-27 12.088-27 27-27c14.904.017 26.983 12.096 27 27z"/><path fill="#000" fill-rule="nonzero" d="M88 58c16.56.019 29.981 13.44 30 30 0 16.568-13.432 30-30 30-16.568 0-30-13.432-30-30 0-16.568 13.432-30 30-30zm0 3.153c-14.827 0-26.847 12.02-26.847 26.847 0 14.827 12.02 26.847 26.847 26.847 14.827 0 26.847-12.02 26.847-26.847C114.831 73.18 102.82 61.17 88 61.153z"/><path stroke="#000" stroke-linecap="round" stroke-linejoin="round" stroke-width="4" d="M78 88l7 7 13-13"/></g></svg>