<?xml version="1.0" encoding="utf-8"?><svg xmlns="http://www.w3.org/2000/svg" width="128" height="128" viewBox="0 0 128 128"><g fill="none" fill-rule="evenodd"><path fill="#D3F6FB" d="M126.157 35.545l-10.961 77.997-77.567 13.677L.652 57.675 55.365 1.018z" opacity=".75"/><path fill="#000" fill-rule="nonzero" d="M37.783 101.456l-6.269-6.138C29.248 93.097 28 90.149 28 87.01V62.357C28 60.506 29.538 59 31.429 59c1.89 0 3.428 1.506 3.428 3.357v16.09a5.635 5.635 0 00-1.714 4.053c0 1.53.608 2.97 1.714 4.052l5.645 5.528 2.424-2.374-5.643-5.527a2.337 2.337 0 01-.002-3.358l1.005-.983c.913-.898 2.511-.898 3.428 0l7.274 7.122C50.93 88.862 52 91.391 52 94.08V106H38.286v-3.357c0-.447-.18-.873-.503-1.187zM55 120H35v-10h20v10z"/><path fill="#E61A1A" d="M35 110h20l-3.42 1.71L45 115z"/><path fill="#000" fill-rule="nonzero" d="M94.217 101.456l6.269-6.138c2.266-2.221 3.514-5.169 3.514-8.308V62.357c0-1.851-1.538-3.357-3.429-3.357-1.89 0-3.428 1.506-3.428 3.357v16.09a5.639 5.639 0 011.714 4.053c0 1.53-.608 2.97-1.714 4.052l-5.645 5.528-2.424-2.374 5.643-5.527a2.337 2.337 0 00.002-3.358l-1.005-.983c-.913-.898-2.511-.898-3.428 0l-7.274 7.122C81.07 88.862 80 91.391 80 94.08V106h13.714v-3.357c0-.447.18-.873.503-1.187zM77 120h20v-10H77v10z"/><path fill="#E61A1A" d="M77 110h20l-10 5zM35 16h42v24H35z"/><path fill="#000" d="M81 10l10 10v48a6 6 0 01-6 6H47a6 6 0 01-6-6V38h-2a2 2 0 01-2-2V20a2 2 0 012-2h2v-2a6 6 0 016-6h34zm-3 3H47a3 3 0 00-3 3v2h29a2 2 0 012 2v16a2 2 0 01-2 2H44v30a3 3 0 002.824 2.995L47 71h38a3 3 0 003-3V23h-7a3 3 0 01-3-3v-7zM65.514 43.12c.302-.16.67-.16.972 0l9 4.792c.317.17.514.49.514.838v11.5a.954.954 0 01-.514.838l-9 4.791c-.302.161-.67.161-.972 0l-9-4.791A.955.955 0 0156 60.25v-11.5c0-.348.197-.669.514-.838zM58 51v8.569L65 63v-8.569L58 51zm16 0l-7 3.43V63l7-3.43V51zm-8-6l-8 4 8 4 8-4-8-4zm6-25H40a1 1 0 00-1 1v14a1 1 0 001 1h32a1 1 0 001-1V21a1 1 0 00-1-1zm-24.776 3c.478 0 .934.06 1.369.18.434.12.889.288 1.363.505l-.63 1.604-.238-.101a7.799 7.799 0 00-.98-.345 3.733 3.733 0 00-.947-.126c-.37 0-.653.09-.85.272a.922.922 0 00-.296.712c0 .182.04.34.12.476.08.135.206.266.38.393.174.126.587.353 1.237.681.86.435 1.45.871 1.77 1.308.319.437.478.972.478 1.607 0 .878-.3 1.57-.897 2.076-.598.505-1.43.758-2.496.758-.983 0-1.851-.195-2.607-.585v-1.917l.26.12c.51.23.948.396 1.317.5.43.119.824.179 1.18.179.429 0 .757-.087.986-.26.229-.173.343-.43.343-.772 0-.19-.05-.36-.151-.509a1.74 1.74 0 00-.444-.429c-.195-.137-.593-.357-1.193-.658-.562-.28-.984-.548-1.265-.805a2.998 2.998 0 01-.674-.899c-.168-.341-.252-.74-.252-1.197 0-.86.276-1.537.828-2.03.552-.492 1.315-.738 2.289-.738zM60 23v1.765h-2.877V33h-2.246v-8.235H52V23h8zm4.06 0v8.249H68V33h-6V23h2.06z"/></g></svg>