<?xml version="1.0" encoding="utf-8"?><svg xmlns="http://www.w3.org/2000/svg" width="128" height="128" viewBox="0 0 128 128"><g fill="none" fill-rule="evenodd" transform="translate(-24 -24)"><path fill="#D3F6FB" d="M150.157 59.545l-10.961 77.997-77.567 13.677-36.977-69.544 54.713-56.657z" opacity=".75"/><rect width="69" height="6" x="25" y="111" fill="#E61A1A" rx="1"/><path fill="#000" fill-rule="nonzero" d="M76 135h-7v-4h7v4zm-3-16v-12h12V95H49v16H37v4h12v16h16v4H45v-16H33v-12h12V75h12v-4H45V51h44v20h-4V55H49v12h12v12H49v12h36V75h4v16h16v12h4V91h20v28h-4.001L125 95h-12v12h-12V95H89v16H77v4h12l-.001 4H73z"/><path fill="#E61A1A" d="M92 27h39v38h-14v20h-4V71H92z"/><path fill="#000" d="M139 123a2 2 0 012 2v15a2 2 0 01-2 2H82a2 2 0 01-2-2v-15a2 2 0 012-2h57zm-2 3H84a1 1 0 00-1 1v11a1 1 0 001 1h53a1 1 0 001-1v-11a1 1 0 00-1-1z"/><text fill="#000" font-family="Roboto-Bold, Roboto" font-size="10" font-weight="bold" transform="translate(33 27)"><tspan x="53" y="109">GE SMART</tspan></text><path fill="#000" fill-rule="nonzero" d="M139 49V29H95v43.946L111 73l.091 12H123V73h16V53h-4v16h-16v12h-4V69H99V33h36v16z"/><path fill="#000" fill-rule="nonzero" d="M111 49h4v4h-4zm8 0h4v4h-4zm8 0h4v4h-4z"/></g></svg>