<?xml version="1.0" encoding="utf-8"?><svg xmlns="http://www.w3.org/2000/svg" width="36" height="32" viewBox="0 0 36 32"><g fill="none"><path fill="#016FD0" d="M.719 0h34.913v17.232L33.904 19.7l1.728 2.198v10.023H.719V15.676l1.08-1.135-1.08-1.086z"/><path fill="#FFF" d="M7.496 22.243v-5.011H13.3l.623.742.643-.742h21.066v4.666s-.55.34-1.188.345H22.779l-.702-.79v.79h-2.3v-1.348s-.315.188-.994.188H18v1.16h-3.483l-.622-.758-.631.758H7.496zM.719 13.455l1.309-2.79h2.263l.743 1.563v-1.563h2.813l.443 1.13.428-1.13h12.63v.568s.664-.568 1.755-.568l4.098.013.73 1.542v-1.555h2.355l.648.886v-.886h2.376v5.011h-2.376l-.621-.888v.888h-3.46l-.347-.79h-.93l-.343.79h-2.346c-.939 0-1.539-.556-1.539-.556v.556h-3.537l-.702-.79v.79H3.956l-.348-.79h-.927l-.345.79H.719v-2.221z"/><path fill="#016FD0" d="M2.491 11.283L.726 15.035h1.149l.326-.751h1.893l.324.751h1.175l-1.764-3.752H2.491zm.653.873l.577 1.313H2.565l.58-1.313zm2.57 2.879v-3.753l1.633.006.95 2.419.928-2.425h1.62v3.753H9.819V12.27l-1.088 2.765h-.9L6.74 12.27v2.765zm5.833 0v-3.753h3.348v.839h-2.311v.642h2.257v.79h-2.257v.667h2.311v.815zm3.942-3.752v3.752h1.026v-1.333h.432l1.23 1.333h1.254l-1.35-1.382c.554-.043 1.126-.478 1.126-1.153 0-.79-.678-1.217-1.435-1.217h-2.283zm1.026.839h1.173c.281 0 .486.201.486.395 0 .25-.265.395-.471.395h-1.188v-.79zm4.158 2.913h-1.047v-3.753h1.047zm2.484 0h-.226c-1.094 0-1.758-.789-1.758-1.861 0-1.1.657-1.892 2.038-1.892h1.134v.889H23.17c-.561 0-.958.4-.958 1.012 0 .727.454 1.032 1.107 1.032h.27l-.432.82zm2.233-3.752l-1.765 3.752h1.15l.325-.751h1.893l.324.751h1.175l-1.764-3.752H25.39zm.653.873l.577 1.313h-1.156l.58-1.313zm2.569 2.879v-3.753h1.304l1.666 2.358v-2.358h1.026v3.753h-1.262l-1.708-2.42v2.42zM8.198 21.601v-3.752h3.349v.839H9.235v.642h2.258v.79H9.235v.667h2.312v.814zm16.407 0v-3.752h3.348v.839h-2.312v.642h2.247v.79h-2.247v.667h2.312v.814zm-12.928 0l1.63-1.853-1.669-1.899h1.292l.994 1.174.998-1.174h1.242l-1.647 1.876 1.633 1.876h-1.292l-.966-1.155-.941 1.155zm4.595-3.751v3.752h1.053v-1.185h1.08c.914 0 1.607-.443 1.607-1.305 0-.715-.544-1.263-1.474-1.263h-2.266zm1.053.848h1.137c.296 0 .507.166.507.432 0 .25-.21.432-.51.432h-1.134v-.864zm3.132-.849V21.6h1.026v-1.333h.432l1.23 1.333h1.254l-1.35-1.382c.554-.043 1.126-.478 1.126-1.153 0-.79-.678-1.217-1.434-1.217h-2.284zm1.026.84h1.173c.281 0 .486.2.486.394 0 .25-.265.395-.47.395h-1.189v-.79zm6.946 2.912v-.814h2.053c.303 0 .435-.15.435-.315 0-.158-.131-.317-.435-.317h-.928c-.807 0-1.256-.45-1.256-1.124 0-.602.411-1.182 1.61-1.182h1.998l-.432.844h-1.728c-.33 0-.432.159-.432.31 0 .156.125.327.378.327h.972c.899 0 1.29.466 1.29 1.077 0 .657-.436 1.194-1.34 1.194h-2.185zm3.765 0v-.814h2.053c.304 0 .436-.15.436-.315 0-.158-.131-.317-.436-.317h-.928c-.806 0-1.255-.45-1.255-1.124 0-.602.411-1.182 1.61-1.182h1.998l-.432.844h-1.728c-.33 0-.432.159-.432.31 0 .156.125.327.378.327h.972c.899 0 1.289.466 1.289 1.077 0 .657-.435 1.194-1.338 1.194h-2.187z"/></g></svg>