<?xml version="1.0" encoding="utf-8"?><svg xmlns="http://www.w3.org/2000/svg" width="33" height="32" viewBox="0 0 33 32"><g fill="#FFF" fill-rule="evenodd" opacity=".5"><path d="M.571 0h32v32h-32z" fill="none"/><path d="M29.824 21.497c-.065 1.42-.29 2.389-.62 3.237a6.51 6.51 0 01-1.538 2.361 6.502 6.502 0 01-2.361 1.538c-.848.33-1.817.555-3.237.62-1.422.065-1.876.08-5.497.08s-4.075-.015-5.497-.08c-1.42-.065-2.389-.29-3.237-.62a6.51 6.51 0 01-2.361-1.538 6.502 6.502 0 01-1.538-2.361c-.33-.848-.555-1.817-.62-3.237-.065-1.422-.08-1.876-.08-5.497s.015-4.075.08-5.497c.065-1.42.29-2.389.62-3.237a6.51 6.51 0 011.538-2.361 6.502 6.502 0 012.361-1.538c.848-.33 1.817-.555 3.237-.62 1.422-.065 1.876-.08 5.497-.08s4.075.015 5.497.08c1.42.065 2.389.29 3.237.62a6.51 6.51 0 012.361 1.538 6.502 6.502 0 011.538 2.361c.33.848.555 1.817.62 3.237.065 1.422.08 1.876.08 5.497s-.015 4.075-.08 5.497zm-2.662-10.754c-.058-1.27-.27-1.958-.448-2.417a4.042 4.042 0 00-.973-1.496 4.05 4.05 0 00-1.496-.973c-.459-.178-1.148-.39-2.417-.448-1.371-.062-1.783-.076-5.257-.076-3.474 0-3.886.014-5.257.076-1.27.058-1.958.27-2.417.448a4.042 4.042 0 00-1.496.973 4.05 4.05 0 00-.973 1.496c-.178.459-.39 1.148-.448 2.417-.062 1.371-.076 1.783-.076 5.257 0 3.474.014 3.886.076 5.257.058 1.27.27 1.958.448 2.417.236.607.518 1.04.973 1.496.456.455.89.737 1.496.973.459.178 1.148.39 2.417.448 1.371.062 1.783.076 5.257.076 3.474 0 3.886-.014 5.257-.076 1.27-.058 1.958-.27 2.417-.448a4.042 4.042 0 001.496-.973 4.05 4.05 0 00.973-1.496c.178-.459.39-1.148.448-2.417.062-1.371.076-1.783.076-5.257 0-3.474-.014-3.886-.076-5.257zm-3.924-.076a1.334 1.334 0 110-2.667 1.334 1.334 0 010 2.667zm-6.667 12a6.667 6.667 0 110-13.334 6.667 6.667 0 010 13.334zm0-10.667c-2.21 0-4 1.79-4 4s1.79 4 4 4 4-1.79 4-4-1.79-4-4-4z"/></g></svg>