<?xml version="1.0" encoding="utf-8"?><svg xmlns="http://www.w3.org/2000/svg" width="16" height="16" viewBox="0 0 16 16"><path fill="#FFF" fill-rule="evenodd" d="M7 1c.828 0 1.607.156 2.338.469.73.312 1.367.74 1.91 1.283.543.543.97 1.18 1.283 1.91.313.73.469 1.51.469 2.338 0 .828-.156 1.607-.469 2.338a6.13 6.13 0 01-.673 1.194.977.977 0 01.288.2l2.829 2.829a1 1 0 01-1.414 1.414l-2.829-2.829a1 1 0 01-.201-.288 6.092 6.092 0 01-1.193.673C8.608 12.844 7.828 13 7 13a5.875 5.875 0 01-2.338-.469 6.016 6.016 0 01-1.91-1.283 6.033 6.033 0 01-1.283-1.91A5.872 5.872 0 011 7c0-.828.156-1.607.469-2.338.312-.73.74-1.367 1.283-1.91a6.033 6.033 0 011.91-1.283A5.872 5.872 0 017 1zm0 1.5c-.623 0-1.207.119-1.753.356a4.6 4.6 0 00-1.426.963c-.405.405-.727.88-.964 1.425A4.328 4.328 0 002.5 6.995c0 .622.119 1.206.357 1.75.237.546.559 1.023.964 1.43.405.409.88.731 1.426.969.546.237 1.13.356 1.753.356s1.207-.119 1.753-.356a4.545 4.545 0 002.39-2.398 4.328 4.328 0 00.357-1.751 4.32 4.32 0 00-.357-1.75 4.58 4.58 0 00-.964-1.426 4.6 4.6 0 00-1.426-.963A4.37 4.37 0 007 2.5z"/></svg>