<?xml version="1.0" encoding="utf-8"?><svg xmlns="http://www.w3.org/2000/svg" width="32" height="32" viewBox="0 0 32 32"><g fill="none" fill-rule="evenodd"><path d="M0 0h32v32H0z"/><path fill="#FFF" d="M25 0l5 5v24a3 3 0 01-3 3H8a3 3 0 01-3-3V15H4a1 1 0 01-1-1V6a1 1 0 011-1h1V3a3 3 0 013-3h17zm-1 1H8a2 2 0 00-2 2v2h15a1 1 0 011 1v8a1 1 0 01-1 1H6v14c0 1.054.816 1.918 1.85 1.995L8 31h19a2 2 0 002-2V6h-4a1 1 0 01-1-1V1zm-6.743 16.56a.522.522 0 01.486 0l4.5 2.396a.476.476 0 01.257.419v5.75a.476.476 0 01-.257.419l-4.5 2.396a.522.522 0 01-.486 0l-4.5-2.396a.476.476 0 01-.257-.419v-5.75c0-.174.098-.334.257-.419zM13.5 21.5v4.284L17 27.5v-4.284L13.5 21.5zm8 0L18 23.215V27.5l3.5-1.715V21.5zm-4-3l-4 2 4 2 4-2-4-2zM20 6H5a1 1 0 00-1 1v6a1 1 0 001 1h15a1 1 0 001-1V7a1 1 0 00-1-1zM8.112 7.5c.239 0 .467.03.684.09.218.06.445.144.682.253l-.315.801-.176-.073a3.794 3.794 0 00-.433-.15 1.861 1.861 0 00-.474-.063c-.184 0-.326.046-.425.137a.463.463 0 00-.148.356c0 .09.02.17.06.237.04.068.104.134.19.197.088.063.294.177.62.34.43.218.724.436.884.654.16.219.239.487.239.804 0 .439-.15.785-.449 1.038-.299.253-.715.379-1.248.379-.49 0-.925-.098-1.303-.293v-.958l.18.083c.234.103.436.179.609.227.215.06.411.09.59.09.214 0 .378-.044.492-.13.115-.087.172-.215.172-.386a.44.44 0 00-.076-.255.855.855 0 00-.221-.214 5.46 5.46 0 00-.597-.33 2.855 2.855 0 01-.633-.402 1.518 1.518 0 01-.337-.45 1.337 1.337 0 01-.125-.598c0-.43.138-.769.413-1.015.276-.246.658-.369 1.145-.369zm6.388 0v.882h-1.438V12.5h-1.124V8.382H10.5V7.5h4zm2.03 0v4.124h1.97v.876h-3v-5h1.03z"/></g></svg>