<?xml version="1.0" encoding="utf-8"?><svg xmlns="http://www.w3.org/2000/svg" width="16" height="16" viewBox="0 0 16 16"><path fill="#FFF" fill-rule="evenodd" d="M13.439 6.28l-.38-.919s.882-2.03.804-2.108L12.696 2.09c-.08-.08-2.069.846-2.069.846l-.917-.378S8.9.5 8.79.5H7.143c-.115 0-.864 2.062-.864 2.062l-.916.38s-2.03-.881-2.108-.803L2.09 3.304c-.08.08.847 2.07.847 2.07l-.379.917S.5 7.1.5 7.21v1.648c0 .115 2.063.865 2.063.865l.379.916s-.881 2.029-.804 2.107l1.166 1.166c.079.079 2.068-.848 2.068-.848l.918.38s.81 2.056.922 2.056h1.646c.114 0 .864-2.062.864-2.062l.919-.38s2.026.881 2.104.804l1.166-1.164c.081-.082-.848-2.07-.848-2.07l.378-.917s2.059-.812 2.059-.922V7.142c0-.114-2.061-.862-2.061-.862zM10.5 8c0 1.378-1.122 2.5-2.5 2.5A2.504 2.504 0 015.5 8c0-1.38 1.123-2.5 2.5-2.5 1.379 0 2.5 1.12 2.5 2.5z"/></svg>