<?xml version="1.0" encoding="utf-8"?><svg xmlns="http://www.w3.org/2000/svg" xmlns:xlink="http://www.w3.org/1999/xlink" width="32" height="32" viewBox="0 0 32 32"><defs><path id="bsa" d="M0 0h32v32H0z"/></defs><g fill="none" fill-rule="evenodd"><mask id="bsb" fill="#fff"><use xlink:href="#bsa"/></mask><path fill="#FFF" d="M8 1L6 3H3v3h3v1H3v4h3v1H3v4h3v1H3v4h3v1H3v4h3v1H3v2h3l2 2H1v-2h1V3H1V1h7z" mask="url(#bsb)"/><g mask="url(#bsb)"><path fill="#BDBDBD" d="M22.6 15L25 31h-4l-1-6h-2l-1 6h-4l2.243-16H22.6zM17 10l1-3h2l1 3zm-6 1l-1 10h2l2-10zm13 0l2 10h2l-1-10z"/><path fill="#FFF" d="M10 10l9-1 9 1-9 14zm8.999-9l-1.711.229L16 3.433l1.465 3.936L19 8l1.535-.631L22 3.433l-1.288-2.204L19.002 1z"/></g></g></svg>