<?xml version="1.0" encoding="utf-8"?><svg xmlns="http://www.w3.org/2000/svg" xmlns:xlink="http://www.w3.org/1999/xlink" width="32" height="32" viewBox="0 0 32 32"><defs><path id="bta" d="M0 0h32v32H0z"/></defs><g fill="none" fill-rule="evenodd"><mask id="btb" fill="#fff"><use xlink:href="#bta"/></mask><g mask="url(#btb)"><path fill="#BDBDBD" d="M19.6 15L22 31h-4l-1-6h-2l-1 6h-4l2.243-16H19.6zM14 10l1-3h2l1 3zm-6 1L7 21h2l2-10zm13 0l2 10h2l-1-10z"/><path fill="#FFF" d="M7 10l9-1 9 1-9 14zm8.999-9l-1.711.229L13 3.433l1.465 3.936L16 8l1.535-.631L19 3.433l-1.288-2.204L16.002 1z"/></g><path fill="#FFF" d="M31 23v8h-8l2-2h4v-4l2-2zM9 1L7 3H3v4L1 9V1h8z" mask="url(#btb)"/></g></svg>