<?xml version="1.0" encoding="utf-8"?><svg xmlns="http://www.w3.org/2000/svg" xmlns:xlink="http://www.w3.org/1999/xlink" width="16" height="16" viewBox="0 0 16 16"><defs><path id="bpa" d="M0 0h16v16H0z"/></defs><g fill="none" fill-rule="evenodd"><mask id="bpb" fill="#fff"><use xlink:href="#bpa"/></mask><path fill="#FFF" d="M8 15.235a.94.94 0 01-.619-.233c-.646-.565-1.27-1.096-1.819-1.564l-.003-.003c-1.612-1.373-3.004-2.56-3.972-3.728C.504 8.4 0 7.162 0 5.808c0-1.314.45-2.527 1.27-3.415A4.299 4.299 0 014.47 1c.923 0 1.77.292 2.514.868.375.29.716.646 1.016 1.061.3-.415.64-.77 1.016-1.061A4.024 4.024 0 0111.53 1a4.3 4.3 0 013.2 1.393c.82.888 1.27 2.1 1.27 3.415 0 1.354-.504 2.592-1.587 3.899-.968 1.168-2.36 2.354-3.972 3.728-.55.47-1.175 1.001-1.823 1.568a.933.933 0 01-.618.232zM4.47 1.937c-.971 0-1.863.388-2.512 1.091C1.3 3.743.938 4.73.938 5.808c0 1.139.422 2.156 1.37 3.3.917 1.107 2.28 2.269 3.86 3.614l.002.002a184.3 184.3 0 011.829 1.573c.655-.57 1.281-1.104 1.834-1.575 1.579-1.346 2.942-2.507 3.859-3.613.948-1.145 1.37-2.162 1.37-3.3 0-1.08-.362-2.066-1.02-2.78a3.375 3.375 0 00-2.512-1.092c-.71 0-1.364.226-1.94.672-.514.398-.872.9-1.082 1.252A.588.588 0 018 4.149c-.21 0-.4-.108-.508-.288A4.552 4.552 0 006.41 2.609a3.107 3.107 0 00-1.94-.672z" mask="url(#bpb)"/></g></svg>