<?xml version="1.0" encoding="utf-8"?><svg xmlns="http://www.w3.org/2000/svg" width="16" height="16" viewBox="0 0 16 16"><path fill="#0030FF" fill-rule="evenodd" d="M15 7.906c.02 1.938-.641 3.594-1.985 4.969-1.343 1.375-2.984 2.083-4.921 2.125-1.938.02-3.594-.641-4.969-1.985C1.75 11.672 1.042 10.031 1 8.094.98 6.156 1.641 4.5 2.985 3.125 4.328 1.75 5.969 1.042 7.906 1c1.938-.02 3.594.641 4.969 1.985C14.25 4.328 14.958 5.969 15 7.906zm-1 .014c.017 1.66-.55 3.08-1.701 4.258C11.147 13.357 9.74 13.964 8.08 14c-1.66.017-3.08-.55-4.258-1.701C2.643 11.147 2.036 9.74 2 8.08 1.983 6.42 2.55 5 3.701 3.822 4.853 2.643 6.26 2.036 7.92 2c1.66-.017 3.08.55 4.258 1.701C13.357 4.853 13.964 6.26 14 7.92zM9 7v5H7V7h2zm0-3v2H7V4h2z"/></svg>