<?xml version="1.0" encoding="utf-8"?><svg xmlns="http://www.w3.org/2000/svg" width="16" height="16" viewBox="0 0 16 16"><path d="M14.757 6.21c.29-.283.392-.697.267-1.082a1.05 1.05 0 00-.852-.718l-3.501-.509a.215.215 0 01-.16-.115L8.947.614A1.049 1.049 0 008 .025c-.405 0-.767.226-.946.589L5.488 3.786a.21.21 0 01-.159.115l-3.5.509c-.4.058-.727.333-.852.718-.125.385-.023.8.267 1.082l2.533 2.47c.05.048.072.117.06.186l-.597 3.487c-.069.398.092.794.42 1.032.327.238.753.268 1.11.08l3.132-1.646a.206.206 0 01.196 0l3.132 1.646a1.05 1.05 0 001.111-.08 1.05 1.05 0 00.42-1.032l-.598-3.487a.21.21 0 01.06-.187l2.534-2.47zM11.33 9.009l.598 3.486a.206.206 0 01-.084.207.208.208 0 01-.223.016l-3.13-1.646a1.06 1.06 0 00-.492-.122c-.169 0-.337.04-.49.122l-3.132 1.646c-.105.055-.19.007-.222-.016s-.104-.09-.084-.207L4.67 9.01a1.056 1.056 0 00-.304-.934l-2.533-2.47a.203.203 0 01-.053-.216.205.205 0 01.17-.144l3.5-.508c.344-.05.641-.266.795-.578L7.811.987A.204.204 0 018 .87c.039 0 .136.012.188.118L9.755 4.16c.154.312.45.528.794.578l3.501.508a.202.202 0 01.17.144.202.202 0 01-.053.216l-2.533 2.47a1.052 1.052 0 00-.303.934zm1.6-8.396a.421.421 0 00-.589.094l-.448.616a.422.422 0 00.683.496l.448-.616a.423.423 0 00-.093-.59zm-8.825.707L3.657.705a.423.423 0 00-.683.497l.448.616a.42.42 0 00.59.094.423.423 0 00.093-.59zM1.548 9.495a.421.421 0 00-.531-.271l-.725.235a.422.422 0 00.26.804l.726-.236a.422.422 0 00.27-.532zM8 14.18a.423.423 0 00-.422.423v.762a.423.423 0 00.844 0v-.762A.422.422 0 008 14.181zm7.708-4.72l-.725-.236a.423.423 0 00-.261.803l.725.236a.422.422 0 00.262-.803z" fill="#FFF" fill-rule="evenodd"/></svg>