<?xml version="1.0" encoding="utf-8"?><svg xmlns="http://www.w3.org/2000/svg" width="16" height="16" viewBox="0 0 16 16"><g fill="#D50000" fill-rule="evenodd" opacity=".9"><circle cx="5.839" cy="6.628" r="1"/><circle cx="10.159" cy="9.337" r="1"/><path d="M15.765 8.866l-.246-.33a1.026 1.026 0 01-.01-1.215l.24-.333c.366-.51.196-1.22-.367-1.518l-.367-.194a1.03 1.03 0 01-.543-1.09l.07-.402c.107-.615-.363-1.184-1-1.21l-.417-.017a1.06 1.06 0 01-.973-.749l-.117-.392C11.86.814 11.185.503 10.6.75l-.384.16A1.062 1.062 0 019.01.65L8.732.346a1.069 1.069 0 00-1.587.013l-.273.307c-.3.337-.783.449-1.203.278L5.282.787a1.066 1.066 0 00-1.427.687l-.11.396c-.12.432-.506.74-.96.763l-.416.023a1.043 1.043 0 00-.98 1.227l.076.402c.084.439-.13.88-.526 1.096l-.364.2a1.03 1.03 0 00-.34 1.521l.247.33c.267.36.273.848.01 1.215l-.24.333c-.367.51-.197 1.22.368 1.52l.366.193c.4.209.62.647.544 1.09l-.07.402c-.107.615.363 1.184 1 1.21l.416.017c.454.02.847.32.974.749l.116.393c.177.602.85.912 1.437.664l.383-.16a1.07 1.07 0 011.207.261l.277.305a1.07 1.07 0 001.586-.014l.274-.307c.3-.337.783-.448 1.203-.278l.387.157a1.065 1.065 0 001.426-.687l.11-.396c.12-.432.507-.74.96-.763l.417-.023a1.043 1.043 0 00.98-1.227l-.077-.402c-.083-.438.13-.88.527-1.096l.363-.2c.557-.3.717-1.014.34-1.521zM4.195 6.628c0-.89.734-1.61 1.64-1.61.907 0 1.64.72 1.64 1.61 0 .89-.733 1.61-1.64 1.61-.906 0-1.64-.723-1.64-1.61zm1.957 4.152a.405.405 0 01-.563.052.389.389 0 01-.054-.553L9.84 5.191a.406.406 0 01.563-.052c.17.137.193.386.053.553L6.152 10.78zm4.007.167c-.907 0-1.64-.72-1.64-1.61 0-.89.733-1.61 1.64-1.61.906 0 1.64.72 1.64 1.61 0 .89-.734 1.61-1.64 1.61z"/></g></svg>