<?xml version="1.0" encoding="utf-8"?><svg xmlns="http://www.w3.org/2000/svg" width="16" height="16" viewBox="0 0 16 16"><path d="M8.126 7.825c1.779 0 3.22-1.752 3.22-3.912C11.347 1.752 10.874 0 8.127 0 5.378 0 4.904 1.752 4.904 3.913c0 2.16 1.443 3.912 3.222 3.912zm6.077 5.816c-.06-3.764-.552-4.837-4.313-5.516 0 0-.53.675-1.764.675-1.235 0-1.764-.675-1.764-.675-3.722.672-4.243 1.728-4.312 5.395-.006.299-.008.315-.01.28l.001.395S2.938 16 8.126 16s6.083-1.806 6.083-1.806v-.292c0 .021-.002-.02-.006-.261z" fill="#FFF" fill-rule="evenodd"/></svg>