<?xml version="1.0" encoding="utf-8"?><svg xmlns="http://www.w3.org/2000/svg" width="16" height="16" viewBox="0 0 16 16"><path fill="#616161" fill-rule="evenodd" d="M2.281 12c.235-.031.461-.07.672-.125a6.563 6.563 0 002.172-1c.438.078.898.125 1.375.125C9.54 11 12 9.21 12 7S9.54 3 6.5 3 1 4.79 1 7c0 1.266.813 2.398 2.078 3.133-.265.648-.61.953-.914 1.297-.086.101-.187.195-.156.343.023.133.133.227.25.227h.023zm1.782-1.64l.273-.657-.758-.437C2.578 8.687 2 7.859 2 7c0-1.625 2.063-3 4.5-3C8.938 4 11 5.375 11 7s-2.062 3-4.5 3c-.406 0-.805-.04-1.195-.11l-.414-.078-.344.243c-.156.11-.32.21-.484.304zM13.719 14c.125.016.242-.086.273-.227.031-.148-.07-.242-.156-.343-.305-.344-.648-.649-.914-1.297C14.188 11.398 15 10.273 15 9c0-1.305-.86-2.46-2.18-3.188.118.383.18.782.18 1.188 0 1.398-.719 2.687-2.023 3.64C9.766 11.517 8.18 12 6.5 12c-.227 0-.46-.016-.687-.031C6.789 12.609 8.086 13 9.5 13c.477 0 .938-.047 1.375-.125.648.46 1.383.797 2.172 1 .21.055.437.094.672.125z"/></svg>