<?xml version="1.0" encoding="utf-8"?><svg xmlns="http://www.w3.org/2000/svg" width="16" height="16" viewBox="0 0 16 16"><path fill="#616161" fill-rule="evenodd" d="M13.6.5c.773 0 1.4.63 1.4 1.406V15.5h-2.028c-.132-.57-.707-1-1.397-1h-6.65c-.69 0-1.265.43-1.397 1H1V1.906C1 1.13 1.627.5 2.4.5h11.2zM3 2h10c.295 0 .5.214.5.5V12c0 .286-.205.5-.5.5H3a.483.483 0 01-.5-.5V2.5c0-.286.205-.5.5-.5zm5.5 2.5v5H13v1h-1.5v.5h-3v1.5h-1V11h-3v-.5h-1v-1h4v-5h1zm-6-.5h11v.5h-11V4zm2 2V3.5A.5.5 0 015 3h1.5a.5.5 0 01.5.5V6a.5.5 0 01-.5.5h-1V7H5v-.5a.5.5 0 01-.5-.5z"/></svg>