<?xml version="1.0" encoding="utf-8"?><svg xmlns="http://www.w3.org/2000/svg" width="16" height="16" viewBox="0 0 16 16"><g fill="none" fill-rule="evenodd"><path fill="#FFF" d="M10 1c-.828 0-1.607.156-2.338.469-.73.312-1.367.74-1.91 1.283a6.033 6.033 0 00-1.283 1.91A5.872 5.872 0 004 7c0 .828.156 1.607.469 2.338.244.571.56 1.085.945 1.542l-3.389 3.388a.5.5 0 00.707.707l3.388-3.389c.457.386.97.7 1.542.945.73.313 1.51.469 2.338.469.828 0 1.607-.156 2.338-.469a6.016 6.016 0 001.91-1.283c.543-.543.97-1.18 1.283-1.91.313-.73.469-1.51.469-2.338 0-.828-.156-1.607-.469-2.338a6.016 6.016 0 00-1.283-1.91 6.033 6.033 0 00-1.91-1.283A5.872 5.872 0 0010 1zm0 1a4.83 4.83 0 011.948.396 5.09 5.09 0 011.584 1.07c.45.45.808.977 1.072 1.583S15 6.303 15 6.994c0 .692-.132 1.34-.396 1.946a5.13 5.13 0 01-1.072 1.588c-.45.454-.978.812-1.584 1.076-.608.264-1.256.396-1.948.396s-1.341-.132-1.948-.396a5.038 5.038 0 01-1.584-1.076A5.148 5.148 0 015.396 8.94 4.817 4.817 0 015 6.994c0-.69.132-1.34.396-1.945a5.073 5.073 0 011.072-1.583 5.09 5.09 0 011.584-1.07A4.833 4.833 0 0110 2z"/><path stroke="#FFF" stroke-linecap="round" d="M13 7H7m3 3V4"/></g></svg>