<?xml version="1.0" encoding="utf-8"?><svg xmlns="http://www.w3.org/2000/svg" width="16" height="16" viewBox="0 0 16 16"><path fill="#616161" fill-rule="evenodd" d="M8 1a6.86 6.86 0 012.728.547 7 7 0 012.228 1.497 7 7 0 011.497 2.228A6.86 6.86 0 0115 8a6.86 6.86 0 01-.547 2.728 7 7 0 01-1.497 2.228 7 7 0 01-2.228 1.497A6.86 6.86 0 018 15a6.86 6.86 0 01-2.728-.547 7 7 0 01-2.228-1.497 7 7 0 01-1.497-2.228A6.86 6.86 0 011 8c0-.966.182-1.875.547-2.728a7 7 0 011.497-2.228 7 7 0 012.228-1.497A6.86 6.86 0 018 1zm0 .875c.848 0 1.643.162 2.386.485a6.23 6.23 0 011.941 1.313c.552.551.99 1.198 1.313 1.941.323.743.485 1.538.485 2.386 0 .848-.162 1.643-.485 2.386a6.32 6.32 0 01-1.313 1.948 6.182 6.182 0 01-1.941 1.32A5.918 5.918 0 018 14.139a5.902 5.902 0 01-2.386-.486 6.162 6.162 0 01-1.941-1.319 6.303 6.303 0 01-1.313-1.948A5.918 5.918 0 011.875 8c0-.848.162-1.643.485-2.386a6.23 6.23 0 011.313-1.941A6.213 6.213 0 015.614 2.36 5.918 5.918 0 018 1.875zM5.879 5.172a.499.499 0 00-.707 0 .499.499 0 000 .707L7.292 8l-2.12 2.121a.499.499 0 000 .707.499.499 0 00.707 0L8 8.708l2.121 2.12a.499.499 0 00.707 0 .499.499 0 000-.707L8.708 8l2.12-2.121a.499.499 0 000-.707.499.499 0 00-.707 0L8 7.292z"/></svg>