<?xml version="1.0" encoding="utf-8"?><svg xmlns="http://www.w3.org/2000/svg" width="17" height="17" viewBox="0 0 17 17"><path fill="#fff" fill-rule="evenodd" d="M15.25 3.614a5.588 5.588 0 01-1.424 1.483v.356c0 2.077-.746 3.96-2.24 5.65-1.492 1.691-3.474 2.537-5.946 2.537a7.925 7.925 0 01-4.39-1.305c.316.04.544.06.682.06 1.325 0 2.511-.416 3.56-1.247a2.886 2.886 0 01-1.661-.578 2.718 2.718 0 01-1.009-1.409c.237.04.415.06.534.06.198 0 .455-.04.771-.12a2.898 2.898 0 01-1.646-.993 2.733 2.733 0 01-.667-1.824v-.03c.435.238.87.356 1.305.356-.85-.554-1.276-1.354-1.276-2.402 0-.495.129-.97.386-1.424C3.75 4.662 5.719 5.66 8.13 5.78c-.04-.139-.059-.356-.059-.653 0-.81.277-1.493.83-2.046.554-.554 1.236-.831 2.047-.831.81 0 1.503.306 2.076.92.594-.1 1.207-.337 1.84-.712-.198.692-.623 1.226-1.276 1.601a4.873 4.873 0 001.661-.445z"/></svg>